<?xml version="1.0" encoding="utf-8"?>
<!-- Generator: Adobe Illustrator 23.0.6, SVG Export Plug-In . SVG Version: 6.00 Build 0)  -->
<svg version="1.1" id="레이어_1" xmlns="http://www.w3.org/2000/svg" xmlns:xlink="http://www.w3.org/1999/xlink" x="0px"
	 y="0px" viewBox="0 0 1056 684.8" style="enable-background:new 0 0 1056 684.8;" xml:space="preserve">
<style type="text/css">
	.st0{fill:#231F20;}
	.st1{fill:#FFFFFF;}
	.st2{display:none;fill:#FFFFFF;}
	.st3{display:none;fill:#CFE7FF;}
	.st4{fill:#CFE7FF;}
	.st5{fill:#26221D;}
	.st6{fill:#797A7D;}
	.st7{fill:#060606;}
	.st8{fill:#484B53;}
	.st9{fill:#BABCBE;}
	.st10{display:none;}
	.st11{display:inline;}
	.st12{fill:#303030;}
	.st13{fill:#57575B;}
	.st14{fill:#C4C5C6;}
	.st15{font-family:'HelveticaNeue-CondensedBold';}
	.st16{font-size:39.2985px;}
	.st17{font-size:28.1588px;}
	.st18{font-size:30px;}
	.st19{font-size:16px;}
	.st20{font-size:21px;}
	.st21{font-family:'HelveticaNeue';}
	.st22{font-size:130px;}
	.st23{font-size:0.1px;}
	.st24{font-size:50px;}
	.st25{font-family:'HelveticaNeue-MediumItalic';}
	.st26{font-size:43.7574px;}
	.st27{enable-background:new    ;}
	.st28{opacity:0.4;}
</style>
<g>
	<g id="BG">
		<polyline id="BG_1_" class="st0" points="67.8,579.3 67.8,258.8 1013.6,258.8 1013.6,579.3 		"/>
	</g>
	<g id="Keyboard">
		<g id="WK_1_">
			<path id="F0_1_" class="st1" d="M73.2,262.7v293c0,0-0.9,9.6,8.9,9.6c8.6,0,53.5,0,53.5,0s6.9,0.6,6.9-9.7
				c0-13.3,0-292.9,0-292.9L73.2,262.7L73.2,262.7z"/>
			<path id="G0_1_" class="st1" d="M145.3,262.7v293c0,0-0.9,9.6,8.9,9.6c8.6,0,53.5,0,53.5,0s6.9,0.6,6.9-9.7
				c0-13.3,0-292.9,0-292.9L145.3,262.7L145.3,262.7z"/>
			<path id="A0_1_" class="st1" d="M217.4,262.7v293c0,0-0.9,9.6,8.9,9.6c8.6,0,53.5,0,53.5,0s6.9,0.6,6.9-9.7
				c0-13.3,0-292.9,0-292.9L217.4,262.7L217.4,262.7z"/>
			<path id="B0_1_" class="st1" d="M289.4,262.7v293c0,0-0.9,9.6,8.9,9.6c8.6,0,53.5,0,53.5,0s6.9,0.6,6.9-9.7
				c0-13.3,0-292.9,0-292.9L289.4,262.7L289.4,262.7z"/>
			<path id="C_1_" class="st1" d="M361.5,262.7v293c0,0-0.9,9.6,8.9,9.6c8.6,0,53.5,0,53.5,0s6.9,0.6,6.9-9.7
				c0-13.3,0-292.9,0-292.9L361.5,262.7L361.5,262.7z"/>
			<path id="D_1_" class="st1" d="M433.6,262.7v293c0,0-0.9,9.6,8.9,9.6c8.6,0,53.5,0,53.5,0s6.9,0.6,6.9-9.7
				c0-13.3,0-292.9,0-292.9L433.6,262.7L433.6,262.7z"/>
			<path id="E_1_" class="st1" d="M505.6,262.7v293c0,0-0.9,9.6,8.9,9.6c8.6,0,53.5,0,53.5,0s6.9,0.6,6.9-9.7
				c0-13.3,0-292.9,0-292.9L505.6,262.7L505.6,262.7z"/>
			<path id="F_1_" class="st2" d="M577.7,262.7v293c0,0-0.9,9.6,8.9,9.6c8.6,0,53.5,0,53.5,0s6.9,0.6,6.9-9.7
				c0-13.3,0-292.9,0-292.9L577.7,262.7L577.7,262.7z"/>
			<path id="G_1_" class="st1" d="M649.8,262.7v293c0,0-0.9,9.6,8.9,9.6c8.6,0,53.5,0,53.5,0s6.9,0.6,6.9-9.7
				c0-13.3,0-292.9,0-292.9L649.8,262.7L649.8,262.7z"/>
			<path id="A_1_" class="st1" d="M721.8,262.7v293c0,0-0.9,9.6,8.9,9.6c8.6,0,53.5,0,53.5,0s6.9,0.6,6.9-9.7
				c0-13.3,0-292.9,0-292.9L721.8,262.7L721.8,262.7z"/>
			<path id="B_1_" class="st2" d="M793.9,262.7v293c0,0-0.9,9.6,8.9,9.6c8.6,0,53.5,0,53.5,0s6.9,0.6,6.9-9.7
				c0-13.3,0-292.9,0-292.9L793.9,262.7L793.9,262.7z"/>
			<path id="C1" class="st1" d="M866,262.7v293c0,0-0.9,9.6,8.9,9.6c8.6,0,53.5,0,53.5,0s6.9,0.6,6.9-9.7c0-13.3,0-292.9,0-292.9
				L866,262.7L866,262.7z"/>
			<path id="D1" class="st1" d="M938.1,262.7v293c0,0-0.9,9.6,8.9,9.6c8.6,0,53.5,0,53.5,0s6.9,0.6,6.9-9.7c0-13.3,0-292.9,0-292.9
				L938.1,262.7L938.1,262.7z"/>
		</g>
		<g id="PWK">
			<path id="PF0_1_" class="st3" d="M73.2,262.7v302.7c0,0-0.9,9.9,8.9,9.9c8.6,0,53.5,0,53.5,0s6.9,0.6,6.9-10.1
				c0-13.7,0-302.5,0-302.5L73.2,262.7L73.2,262.7z"/>
			<path id="PG0_1_" class="st3" d="M145.3,262.7v302.7c0,0-0.9,9.9,8.9,9.9c8.6,0,53.5,0,53.5,0s6.9,0.6,6.9-10.1
				c0-13.7,0-302.5,0-302.5L145.3,262.7L145.3,262.7z"/>
			<path id="PA0_1_" class="st3" d="M217.4,262.7v302.7c0,0-0.9,9.9,8.9,9.9c8.6,0,53.5,0,53.5,0s6.9,0.6,6.9-10.1
				c0-13.7,0-302.5,0-302.5L217.4,262.7L217.4,262.7z"/>
			<path id="PB0_1_" class="st3" d="M289.4,262.7v302.7c0,0-0.9,9.9,8.9,9.9c8.6,0,53.5,0,53.5,0s6.9,0.6,6.9-10.1
				c0-13.7,0-302.5,0-302.5L289.4,262.7L289.4,262.7z"/>
			<path id="PC_1_" class="st3" d="M361.5,262.7v302.7c0,0-0.9,9.9,8.9,9.9c8.6,0,53.5,0,53.5,0s6.9,0.6,6.9-10.1
				c0-13.7,0-302.5,0-302.5L361.5,262.7L361.5,262.7z"/>
			<path id="PD_1_" class="st3" d="M433.6,262.7v302.7c0,0-0.9,9.9,8.9,9.9c8.6,0,53.5,0,53.5,0s6.9,0.6,6.9-10.1
				c0-13.7,0-302.5,0-302.5L433.6,262.7L433.6,262.7z"/>
			<path id="PE_1_" class="st3" d="M505.6,262.7v302.7c0,0-0.9,9.9,8.9,9.9c8.6,0,53.5,0,53.5,0s6.9,0.6,6.9-10.1
				c0-13.7,0-302.5,0-302.5L505.6,262.7L505.6,262.7z"/>
			<path id="PF_1_" class="st4" d="M577.7,262.7v302.7c0,0-0.9,9.9,8.9,9.9c8.6,0,53.5,0,53.5,0s6.9,0.6,6.9-10.1
				c0-13.7,0-302.5,0-302.5L577.7,262.7L577.7,262.7z"/>
			<path id="PG_1_" class="st3" d="M649.8,262.7v302.7c0,0-0.9,9.9,8.9,9.9c8.6,0,53.5,0,53.5,0s6.9,0.6,6.9-10.1
				c0-13.7,0-302.5,0-302.5L649.8,262.7L649.8,262.7z"/>
			<path id="PA_1_" class="st3" d="M721.8,262.7v302.7c0,0-0.9,9.9,8.9,9.9c8.6,0,53.5,0,53.5,0s6.9,0.6,6.9-10.1
				c0-13.7,0-302.5,0-302.5L721.8,262.7L721.8,262.7z"/>
			<path id="PB_1_" class="st4" d="M793.9,262.7v302.7c0,0-0.9,9.9,8.9,9.9c8.6,0,53.5,0,53.5,0s6.9,0.6,6.9-10.1
				c0-13.7,0-302.5,0-302.5L793.9,262.7L793.9,262.7z"/>
			<path id="PC1" class="st3" d="M866,262.7v302.7c0,0-0.9,9.9,8.9,9.9c8.6,0,53.5,0,53.5,0s6.9,0.6,6.9-10.1
				c0-13.7,0-302.5,0-302.5L866,262.7L866,262.7z"/>
			<path id="PD1" class="st3" d="M938.1,262.7v302.7c0,0-0.9,9.9,8.9,9.9c8.6,0,53.5,0,53.5,0s6.9,0.6,6.9-10.1
				c0-13.7,0-302.5,0-302.5L938.1,262.7L938.1,262.7z"/>
		</g>
		<g id="BK_1_">
			<g id="F0S">
				<g id="F0S_1_">
					<rect x="115.7" y="262" class="st5" width="41.2" height="168.9"/>
					<rect x="120.7" y="262" class="st6" width="31.8" height="164.5"/>
					<rect x="122.1" y="265.9" class="st7" width="27.4" height="153.3"/>
					<path class="st8" d="M125.1,265.9L125.1,265.9l-3.7-0.1v153.3h3.7v-84.3c0,0,3.7-22.1,24.4-21.5c0-25.8,0-47.5,0-47.5h-24.4
						V265.9z"/>
					<rect x="121" y="266.7" class="st9" width="2.3" height="152.1"/>
				</g>
			</g>
			<g id="G0S">
				<g id="G0S_1_">
					<rect x="193.2" y="262" class="st5" width="41.2" height="168.9"/>
					<rect x="198.1" y="262" class="st6" width="31.8" height="164.5"/>
					<rect x="199.5" y="265.9" class="st7" width="27.4" height="153.3"/>
					<path class="st8" d="M202.5,265.9L202.5,265.9l-3.7-0.1v153.3h3.7v-84.3c0,0,3.7-22.1,24.4-21.5c0-25.8,0-47.5,0-47.5h-24.4
						V265.9z"/>
					<rect x="198.5" y="266.7" class="st9" width="2.3" height="152.1"/>
				</g>
			</g>
			<g id="A0S">
				<g id="A0S_1_">
					<rect x="270.2" y="262" class="st5" width="41.2" height="168.9"/>
					<rect x="275.2" y="262" class="st6" width="31.8" height="164.5"/>
					<rect x="276.6" y="265.9" class="st7" width="27.4" height="153.3"/>
					<path class="st8" d="M279.6,265.9L279.6,265.9l-3.7-0.1v153.3h3.7v-82.5c0,0,3.7-22.1,24.4-21.5c0-25.8,0-49.2,0-49.2
						L279.6,265.9L279.6,265.9z"/>
					<rect x="275.6" y="266.7" class="st9" width="2.3" height="152.1"/>
				</g>
			</g>
			<g id="CS" class="st10">
				<g id="CS_1_" class="st11">
					<rect x="401.2" y="262" class="st5" width="41.2" height="168.9"/>
					<rect x="406.2" y="262" class="st6" width="31.8" height="164.5"/>
					<rect x="407.5" y="265.9" class="st7" width="27.4" height="153.3"/>
					<path class="st8" d="M410.6,265.9L410.6,265.9l-3.7-0.1v153.3h3.7v-88.2c0,0,3.7-22.1,24.4-21.5c0-25.8,0-43.5,0-43.5
						L410.6,265.9L410.6,265.9z"/>
					<rect x="406.5" y="266.7" class="st9" width="2.3" height="152.1"/>
				</g>
			</g>
			<g id="DS" class="st10">
				<g id="DS_1_" class="st11">
					<rect x="486.5" y="262" class="st5" width="41.2" height="168.9"/>
					<rect x="491.5" y="262" class="st6" width="31.8" height="164.5"/>
					<rect x="492.9" y="265.9" class="st7" width="27.4" height="153.3"/>
					<path class="st8" d="M495.9,265.9L495.9,265.9l-3.7-0.1v153.3h3.7v-88.2c0,0,3.7-22.1,24.4-21.5c0-25.8,0-43.5,0-43.5
						L495.9,265.9L495.9,265.9z"/>
					<rect x="491.9" y="266.7" class="st9" width="2.3" height="152.1"/>
				</g>
			</g>
			<g id="FS" class="st10">
				<g id="FS_1_" class="st11">
					<rect x="623.7" y="262" class="st5" width="41.2" height="168.9"/>
					<rect x="628.7" y="262" class="st6" width="31.8" height="164.5"/>
					<rect x="630.1" y="265.9" class="st7" width="27.4" height="153.3"/>
					<path class="st8" d="M633.1,265.9L633.1,265.9l-3.7-0.1v153.3h3.7v-84.3c0,0,3.7-22.1,24.4-21.5c0-25.8,0-47.5,0-47.5h-24.4
						V265.9z"/>
					<rect x="629" y="266.7" class="st9" width="2.3" height="152.1"/>
				</g>
			</g>
			<g id="GS" class="st10">
				<g id="GS_1_" class="st11">
					<rect x="701.8" y="262" class="st5" width="41.2" height="168.9"/>
					<rect x="706.8" y="262" class="st6" width="31.8" height="164.5"/>
					<rect x="708.2" y="265.9" class="st7" width="27.4" height="153.3"/>
					<path class="st8" d="M711.2,265.9L711.2,265.9l-3.7-0.1v153.3h3.7v-84.3c0,0,3.7-22.1,24.4-21.5c0-25.8,0-47.5,0-47.5h-24.4
						V265.9z"/>
					<rect x="707.2" y="266.7" class="st9" width="2.3" height="152.1"/>
				</g>
			</g>
			<g id="AS" class="st10">
				<g id="AS_1_" class="st11">
					<rect x="778.2" y="262" class="st5" width="41.2" height="168.9"/>
					<rect x="783.2" y="262" class="st6" width="31.8" height="164.5"/>
					<rect x="784.6" y="265.9" class="st7" width="27.4" height="153.3"/>
					<path class="st8" d="M787.6,265.9L787.6,265.9l-3.7-0.1v153.3h3.7v-82.5c0,0,3.7-22.1,24.4-21.5c0-25.8,0-49.2,0-49.2
						L787.6,265.9L787.6,265.9z"/>
					<rect x="783.6" y="266.7" class="st9" width="2.3" height="152.1"/>
				</g>
			</g>
			<g id="C1S">
				<g id="C2S">
					<rect x="914" y="262" class="st5" width="41.2" height="168.9"/>
					<rect x="919" y="262" class="st6" width="31.8" height="164.5"/>
					<rect x="920.4" y="265.9" class="st7" width="27.4" height="153.3"/>
					<path class="st8" d="M923.4,265.9L923.4,265.9l-3.7-0.1v153.3h3.7v-82.5c0,0,3.7-22.1,24.4-21.5c0-25.8,0-49.2,0-49.2
						L923.4,265.9L923.4,265.9z"/>
					<rect x="919.3" y="266.7" class="st9" width="2.3" height="152.1"/>
				</g>
			</g>
		</g>
		<g id="PBK">
			<g id="PF0S" class="st10">
				<g id="PF0S_1_" class="st11">
					<rect x="115.7" y="262" class="st5" width="41.2" height="168.9"/>
					<rect x="118.4" y="262" class="st12" width="36.1" height="168.9"/>
					<rect x="120" y="266" class="st13" width="31" height="163.1"/>
					<path class="st14" d="M123.4,266.9L123.4,266.9l-4.2-0.1v162.4h4.2v-73.4c0,0,4.2-23.4,27.6-22.8c0-27.3,0-66.1,0-66.1H123.4
						L123.4,266.9z"/>
					<rect x="118.7" y="266.8" class="st1" width="2.6" height="162.4"/>
				</g>
			</g>
			<g id="PG0S" class="st10">
				<g id="PG0S_1_" class="st11">
					<rect x="193.2" y="262" class="st5" width="41.2" height="168.9"/>
					<rect x="195.9" y="262" class="st12" width="36.1" height="168.9"/>
					<rect x="197.4" y="266" class="st13" width="31" height="163.1"/>
					<path class="st14" d="M200.8,266.9L200.8,266.9l-4.2-0.1v162.4h4.2v-73.4c0,0,4.2-23.4,27.6-22.8c0-27.3,0-66.1,0-66.1H200.8
						L200.8,266.9z"/>
					<rect x="196.2" y="266.8" class="st1" width="2.6" height="162.4"/>
				</g>
			</g>
			<g id="PA0S" class="st10">
				<g id="PA0S_1_" class="st11">
					<rect x="270.2" y="262" class="st5" width="41.2" height="168.9"/>
					<rect x="272.9" y="262" class="st12" width="36" height="168.9"/>
					<rect x="274.5" y="266" class="st13" width="31" height="163.1"/>
					<path class="st14" d="M277.9,266.9L277.9,266.9l-4.2-0.1v162.4h4.2v-73.4c0,0,4.2-23.4,27.6-22.8c0-27.3,0-66.1,0-66.1H277.9
						L277.9,266.9z"/>
					<rect x="273.2" y="266.8" class="st1" width="2.6" height="162.4"/>
				</g>
			</g>
			<g id="PCS">
				<g id="PCS_1_">
					<rect x="401.2" y="262" class="st5" width="41.2" height="168.9"/>
					<rect x="403.9" y="262" class="st12" width="36" height="168.9"/>
					<rect x="405.4" y="266" class="st13" width="31" height="163.1"/>
					<path class="st14" d="M408.8,266.9L408.8,266.9l-4.2-0.1v162.4h4.2v-73.4c0,0,4.2-23.4,27.6-22.8c0-27.3,0-66.1,0-66.1H408.8
						L408.8,266.9z"/>
					<rect x="404.2" y="266.8" class="st1" width="2.6" height="162.4"/>
				</g>
			</g>
			<g id="PDS">
				<g id="PDS_1_">
					<rect x="486.5" y="262" class="st5" width="41.2" height="168.9"/>
					<rect x="489.2" y="262" class="st12" width="36.1" height="168.9"/>
					<rect x="490.8" y="266" class="st13" width="31" height="163.1"/>
					<path class="st14" d="M494.2,266.9L494.2,266.9l-4.2-0.1v162.4h4.2v-73.4c0,0,4.2-23.4,27.6-22.8c0-27.3,0-66.1,0-66.1H494.2
						L494.2,266.9z"/>
					<rect x="489.5" y="266.8" class="st1" width="2.6" height="162.4"/>
				</g>
			</g>
			<g id="PFS">
				<g id="PFS_1_">
					<rect x="623.7" y="262" class="st5" width="41.2" height="168.9"/>
					<rect x="626.4" y="262" class="st12" width="36" height="168.9"/>
					<rect x="628" y="266" class="st13" width="31" height="163.1"/>
					<path class="st14" d="M631.4,266.9L631.4,266.9l-4.2-0.1v162.4h4.2v-73.4c0,0,4.2-23.4,27.6-22.8c0-27.3,0-66.1,0-66.1H631.4
						L631.4,266.9z"/>
					<rect x="626.7" y="266.8" class="st1" width="2.6" height="162.4"/>
				</g>
			</g>
			<g id="PGS">
				<g id="PGS_1_">
					<rect x="701.8" y="262" class="st5" width="41.2" height="168.9"/>
					<rect x="704.5" y="262" class="st12" width="36" height="168.9"/>
					<rect x="706.1" y="266" class="st13" width="31" height="163.1"/>
					<path class="st14" d="M709.5,266.9L709.5,266.9l-4.2-0.1v162.4h4.2v-73.4c0,0,4.2-23.4,27.6-22.8c0-27.3,0-66.1,0-66.1H709.5
						L709.5,266.9z"/>
					<rect x="704.8" y="266.8" class="st1" width="2.6" height="162.4"/>
				</g>
			</g>
			<g id="PAS_1_">
				<g id="PAS">
					<rect x="778.2" y="262" class="st5" width="41.2" height="168.9"/>
					<rect x="781" y="262" class="st12" width="36" height="168.9"/>
					<rect x="782.5" y="266" class="st13" width="31" height="163.1"/>
					<path class="st14" d="M785.9,266.9L785.9,266.9l-4.2-0.1v162.4h4.2v-73.4c0,0,4.2-23.4,27.6-22.8c0-27.3,0-66.1,0-66.1H785.9
						L785.9,266.9z"/>
					<rect x="781.3" y="266.8" class="st1" width="2.6" height="162.4"/>
				</g>
			</g>
			<g id="PC1S" class="st10">
				<g id="PC2S" class="st11">
					<rect x="914" y="262" class="st5" width="41.2" height="168.9"/>
					<rect x="916.7" y="262" class="st12" width="36" height="168.9"/>
					<rect x="918.3" y="266" class="st13" width="31" height="163.1"/>
					<path class="st14" d="M921.7,266.9L921.7,266.9l-4.2-0.1v162.4h4.2v-73.4c0,0,4.2-23.4,27.6-22.8c0-27.3,0-66.1,0-66.1H921.7
						L921.7,266.9z"/>
					<rect x="917" y="266.8" class="st1" width="2.6" height="162.4"/>
				</g>
			</g>
		</g>
	</g>
	<g id="Note">
		<g id="WK">
			<text id="WK_x5F_F_x5F_note" transform="matrix(1 0 0 1 603.3097 535.3585)" class="st15 st16">F</text>
			<text id="WK_x5F_B_x5F_note" transform="matrix(1 0 0 1 818.7461 535.3585)" class="st15 st16">C</text>
			<text id="WK_x5F_B_x5F_note_x5F_S" transform="matrix(1 0 0 1 841.2242 521.102)" class="st15 st17">b</text>
		</g>
		<g id="BK_x5F_note">
			<text id="BK_x5F_C_x5F_note" transform="matrix(1 0 0 1 410.5147 422.6271)" class="st1 st15 st18">D</text>
			<text id="BK_x5F_C_x5F_note_x5F_S" transform="matrix(1 0 0 1 427.1535 405.675)" class="st1 st15 st19">b</text>
			<text id="BK_x5F_D_x5F_note" transform="matrix(1 0 0 1 494.3313 422.6271)" class="st1 st15 st18">E</text>
			<text id="BK_x5F_D_x5F_note_x5F_S" transform="matrix(1 0 0 1 511.5052 405.675)" class="st1 st15 st19">b</text>
			<text id="BK_x5F_F_x5F_note" transform="matrix(1 0 0 1 632.6754 422.6271)" class="st1 st15 st18">G</text>
			<text id="BK_x5F_F_x5F_note_x5F_S" transform="matrix(1 0 0 1 649.2222 405.675)" class="st1 st15 st19">b</text>
			<text id="BK_x5F_G_x5F_note" transform="matrix(1 0 0 1 709.5596 422.6271)" class="st1 st15 st18">A</text>
			<text id="BK_x5F_G_x5F_note_x5F_S" transform="matrix(1 0 0 1 727.0323 405.675)" class="st1 st15 st19">b</text>
			<text id="BK_x5F_A_x5F_note" transform="matrix(1 0 0 1 787.4429 422.6271)" class="st1 st15 st18">B</text>
			<text id="BK_x5F_A_x5F_note_x5F_S" transform="matrix(1 0 0 1 803.8096 405.675)" class="st1 st15 st19">b</text>
		</g>
	</g>
	<g id="Fingering">
		<g id="WKno">
			<text id="Fno_1_" transform="matrix(1 0 0 1 606.8712 483.363)" class="st15 st17">3</text>
		</g>
		<g id="BKno">
			<text id="CSno_1_" transform="matrix(1 0 0 1 418.5451 386.5672)" class="st1 st15 st20">5</text>
			<text id="DSno_1_" transform="matrix(1 0 0 1 502.7468 386.5672)" class="st1 st15 st20">4</text>
			<text id="FSno" transform="matrix(1 0 0 1 639.9047 386.5672)" class="st1 st15 st20">2</text>
			<text id="GSno_1_" transform="matrix(1 0 0 1 717.4689 386.5672)" class="st1 st15 st20">1</text>
		</g>
	</g>
	<g id="Title">
		<text id="Code_x5F_name" transform="matrix(1 0 0 1 89.2158 233.9041)" class="st21 st22">D</text>
		<text id="Code-S" transform="matrix(1 0 0 1 176.6083 172.77)" class="st15 st23">b</text>
		<text id="Code-sub_x5F_name" transform="matrix(1 0 0 1 185.0993 233.9043)" class="st15 st24">b13</text>
	</g>
	<g id="Note_1_">
		<text id="fundamental" transform="matrix(1 0 0 1 589.5459 630.7141)" class="st25 st26">D</text>
		<text id="fundamental_x5F_S" transform="matrix(1 0 0 1 622.5459 630.7141)" class="st25 st26">b</text>
		<text id="alternate" transform="matrix(1 0 0 1 841.2242 630.7141)" class="st25 st26">A</text>
		<text id="alternate_x5F_S" transform="matrix(1 0 0 1 874.2242 630.7141)" class="st25 st26">b</text>
		<g class="st27">
			<path d="M79.5,597.5h11.4c1.3,0,2.5,0.1,3.6,0.3s2,0.5,2.8,1s1.4,1.2,1.9,2.1s0.7,2,0.7,3.4c0,2.2-0.7,4-2,5.5
				c-1.3,1.4-3.2,2.3-5.5,2.6v0.1c3.9,0.6,5.8,2.9,5.8,6.8c0,1.1-0.2,2.2-0.6,3.3s-1.1,2.1-1.9,3c-0.9,0.9-2.1,1.6-3.5,2.2
				c-1.4,0.6-3.2,0.9-5.3,0.9h-14L79.5,597.5z M75.1,627.1h11.7c1.5,0,2.8-0.2,4-0.6c1.2-0.4,2.2-0.9,3-1.6c0.8-0.7,1.4-1.5,1.8-2.5
				s0.6-2,0.6-3.2c0-2.1-0.6-3.6-1.8-4.5c-1.2-0.9-3.2-1.3-5.9-1.3H78L75.1,627.1z M78.4,611.6h10.5c2.8,0,5-0.6,6.6-1.9
				s2.4-3,2.4-5.3c0-1.2-0.2-2.2-0.5-2.9c-0.4-0.7-0.9-1.3-1.5-1.6c-0.6-0.4-1.4-0.6-2.3-0.7c-0.9-0.1-1.8-0.2-2.9-0.2H81
				L78.4,611.6z"/>
			<path d="M116.4,597.5h2l5.8,31.2h-1.9l-1.8-10h-15.1l-6,10h-2.2L116.4,597.5z M106.4,617h13.8l-3.2-17.6L106.4,617z"/>
			<path d="M130,618.4c0,0.1,0,0.5,0,0.9v0.9c0,1,0.2,1.9,0.5,2.8s0.9,1.7,1.6,2.4c0.7,0.7,1.7,1.3,2.9,1.7s2.6,0.6,4.3,0.6
				c1.4,0,2.7-0.1,3.9-0.4c1.2-0.3,2.3-0.7,3.2-1.3s1.6-1.3,2.1-2.3c0.5-0.9,0.8-2.1,0.8-3.4c0-1.1-0.3-2.1-0.9-2.8
				c-0.6-0.8-1.3-1.4-2.1-1.9s-1.8-0.9-2.8-1.3c-1-0.3-1.9-0.6-2.8-0.9c-1-0.3-2-0.6-3-1s-1.9-0.9-2.8-1.5s-1.5-1.4-2-2.3
				c-0.5-0.9-0.8-2.1-0.8-3.5s0.3-2.6,0.9-3.7c0.6-1.1,1.4-2,2.5-2.7c1-0.7,2.2-1.2,3.6-1.6c1.4-0.3,2.8-0.5,4.2-0.5s2.7,0.2,4,0.5
				s2.4,0.8,3.3,1.5c0.9,0.7,1.7,1.5,2.3,2.5s0.8,2.1,0.8,3.5c0,0.3,0,0.6,0,0.8s-0.1,0.6-0.1,1h-1.9c0.1-0.4,0.1-0.8,0.1-0.9
				c0-0.2,0-0.4,0-0.7c0-1.1-0.2-2.1-0.7-2.9c-0.5-0.8-1.1-1.5-1.9-2c-0.8-0.5-1.7-0.9-2.7-1.2c-1-0.2-2.1-0.4-3.2-0.4
				c-1.1,0-2.1,0.1-3.2,0.4s-2.1,0.6-3,1.2c-0.9,0.5-1.6,1.2-2.2,2.1c-0.6,0.9-0.9,1.9-0.9,3.2c0,1.2,0.2,2.1,0.7,2.9
				c0.5,0.8,1.1,1.4,1.9,1.9c0.8,0.5,1.7,0.9,2.7,1.2s2.1,0.6,3.2,0.9c1.1,0.3,2.1,0.7,3.2,1c1,0.4,2,0.9,2.8,1.5s1.5,1.4,1.9,2.3
				c0.5,0.9,0.7,2,0.7,3.3c0,1.5-0.3,2.8-0.9,4c-0.6,1.1-1.5,2.1-2.5,2.9c-1.1,0.8-2.3,1.4-3.8,1.8c-1.5,0.4-3,0.6-4.7,0.6
				c-1.5,0-3-0.2-4.3-0.6c-1.4-0.4-2.5-1-3.5-1.7s-1.8-1.7-2.4-2.8c-0.6-1.1-0.9-2.4-0.9-3.8c0-0.4,0-0.7,0-1.1c0-0.3,0-0.7,0-1.1
				L130,618.4L130,618.4z"/>
			<path d="M157.5,618.4c0,0.1,0,0.5,0,0.9v0.9c0,1,0.2,1.9,0.5,2.8s0.9,1.7,1.6,2.4c0.7,0.7,1.7,1.3,2.9,1.7s2.6,0.6,4.3,0.6
				c1.4,0,2.7-0.1,3.9-0.4c1.2-0.3,2.3-0.7,3.2-1.3s1.6-1.3,2.1-2.3c0.5-0.9,0.8-2.1,0.8-3.4c0-1.1-0.3-2.1-0.9-2.8
				c-0.6-0.8-1.3-1.4-2.1-1.9s-1.8-0.9-2.8-1.3c-1-0.3-1.9-0.6-2.8-0.9c-1-0.3-2-0.6-3-1s-1.9-0.9-2.8-1.5s-1.5-1.4-2-2.3
				c-0.5-0.9-0.8-2.1-0.8-3.5s0.3-2.6,0.9-3.7c0.6-1.1,1.4-2,2.5-2.7c1-0.7,2.2-1.2,3.6-1.6c1.4-0.3,2.8-0.5,4.2-0.5s2.7,0.2,4,0.5
				s2.4,0.8,3.3,1.5c0.9,0.7,1.7,1.5,2.3,2.5s0.8,2.1,0.8,3.5c0,0.3,0,0.6,0,0.8s-0.1,0.6-0.1,1h-1.9c0.1-0.4,0.1-0.8,0.1-0.9
				c0-0.2,0-0.4,0-0.7c0-1.1-0.2-2.1-0.7-2.9c-0.5-0.8-1.1-1.5-1.9-2c-0.8-0.5-1.7-0.9-2.7-1.2c-1-0.2-2.1-0.4-3.2-0.4
				c-1.1,0-2.1,0.1-3.2,0.4s-2.1,0.6-3,1.2c-0.9,0.5-1.6,1.2-2.2,2.1c-0.6,0.9-0.9,1.9-0.9,3.2c0,1.2,0.2,2.1,0.7,2.9
				c0.5,0.8,1.1,1.4,1.9,1.9c0.8,0.5,1.7,0.9,2.7,1.2s2.1,0.6,3.2,0.9c1.1,0.3,2.1,0.7,3.2,1c1,0.4,2,0.9,2.8,1.5s1.5,1.4,1.9,2.3
				c0.5,0.9,0.7,2,0.7,3.3c0,1.5-0.3,2.8-0.9,4c-0.6,1.1-1.5,2.1-2.5,2.9c-1.1,0.8-2.3,1.4-3.8,1.8c-1.5,0.4-3,0.6-4.7,0.6
				c-1.5,0-3-0.2-4.3-0.6c-1.4-0.4-2.5-1-3.5-1.7s-1.8-1.7-2.4-2.8c-0.6-1.1-0.9-2.4-0.9-3.8c0-0.4,0-0.7,0-1.1c0-0.3,0-0.7,0-1.1
				L157.5,618.4L157.5,618.4z"/>
			<path d="M201.1,597.5h2.3l13.7,29.3h0.1l6.1-29.3h1.9l-6.8,31.2h-2.2l-13.8-29.3h-0.1l-6,29.3h-1.9L201.1,597.5z"/>
			<path d="M226.1,616.1c0-2.5,0.4-4.9,1.2-7.2s1.9-4.4,3.3-6.2c1.4-1.8,3.2-3.3,5.3-4.4c2.1-1.1,4.4-1.6,6.9-1.6
				c2,0,3.9,0.3,5.4,0.9c1.6,0.6,2.9,1.5,4,2.6s1.9,2.5,2.5,4.1s0.9,3.4,0.9,5.4c0,2.3-0.4,4.7-1.1,7c-0.8,2.3-1.9,4.4-3.3,6.3
				c-1.4,1.9-3.2,3.4-5.2,4.6c-2.1,1.2-4.4,1.8-6.9,1.8c-2.1,0-3.9-0.3-5.5-0.9c-1.6-0.6-2.9-1.5-4-2.7s-1.9-2.6-2.5-4.2
				S226.1,618.1,226.1,616.1z M228.1,616.2c0,1.7,0.2,3.3,0.7,4.7s1.2,2.7,2.1,3.7c0.9,1,2,1.8,3.4,2.4c1.3,0.6,2.9,0.9,4.6,0.9
				c2.3,0,4.4-0.5,6.2-1.6s3.4-2.4,4.7-4.1c1.3-1.7,2.3-3.6,3-5.7c0.7-2.1,1-4.2,1-6.3c0-1.7-0.2-3.2-0.7-4.6
				c-0.4-1.4-1.1-2.7-2-3.7c-0.9-1.1-2-1.9-3.3-2.5s-2.9-0.9-4.7-0.9c-2.3,0-4.3,0.5-6.2,1.4s-3.4,2.3-4.7,3.9
				c-1.3,1.6-2.3,3.5-3,5.7C228.4,611.5,228.1,613.8,228.1,616.2z"/>
			<path d="M257.4,599.1l0.4-1.7h24l-0.4,1.7h-10.9l-6.3,29.6h-1.9l6.3-29.6H257.4z"/>
			<path d="M284.2,597.5h20.4l-0.4,1.7h-18.4l-2.6,12.5h17.2l-0.3,1.7h-17.2l-2.9,13.7h19l-0.4,1.7h-20.9L284.2,597.5z"/>
			<path d="M304.8,618.4c0,0.1,0,0.5,0,0.9v0.9c0,1,0.2,1.9,0.5,2.8s0.9,1.7,1.6,2.4s1.7,1.3,2.9,1.7c1.2,0.4,2.6,0.6,4.3,0.6
				c1.4,0,2.7-0.1,3.9-0.4c1.2-0.3,2.3-0.7,3.2-1.3c0.9-0.6,1.6-1.3,2.1-2.3c0.5-0.9,0.8-2.1,0.8-3.4c0-1.1-0.3-2.1-0.9-2.8
				c-0.6-0.8-1.3-1.4-2.1-1.9c-0.8-0.5-1.8-0.9-2.8-1.3c-1-0.3-1.9-0.6-2.8-0.9c-1-0.3-2-0.6-3-1s-1.9-0.9-2.8-1.5s-1.5-1.4-2-2.3
				c-0.5-0.9-0.8-2.1-0.8-3.5s0.3-2.6,0.9-3.7c0.6-1.1,1.4-2,2.5-2.7c1-0.7,2.2-1.2,3.6-1.6c1.4-0.3,2.8-0.5,4.2-0.5
				c1.4,0,2.7,0.2,4,0.5s2.4,0.8,3.3,1.5s1.7,1.5,2.3,2.5s0.8,2.1,0.8,3.5c0,0.3,0,0.6,0,0.8s-0.1,0.6-0.1,1h-1.9
				c0.1-0.4,0.1-0.8,0.1-0.9c0-0.2,0-0.4,0-0.7c0-1.1-0.2-2.1-0.7-2.9c-0.5-0.8-1.1-1.5-1.9-2s-1.7-0.9-2.7-1.2
				c-1-0.2-2.1-0.4-3.2-0.4s-2.1,0.1-3.2,0.4s-2.1,0.6-3,1.2c-0.9,0.5-1.6,1.2-2.2,2.1c-0.6,0.9-0.9,1.9-0.9,3.2
				c0,1.2,0.2,2.1,0.7,2.9c0.5,0.8,1.1,1.4,1.9,1.9s1.7,0.9,2.7,1.2s2.1,0.6,3.2,0.9c1.1,0.3,2.1,0.7,3.2,1c1,0.4,2,0.9,2.8,1.5
				s1.5,1.4,1.9,2.3c0.5,0.9,0.7,2,0.7,3.3c0,1.5-0.3,2.8-0.9,4c-0.6,1.1-1.5,2.1-2.5,2.9c-1.1,0.8-2.3,1.4-3.8,1.8
				c-1.5,0.4-3,0.6-4.7,0.6c-1.5,0-3-0.2-4.3-0.6c-1.4-0.4-2.5-1-3.5-1.7s-1.8-1.7-2.4-2.8s-0.9-2.4-0.9-3.8c0-0.4,0-0.7,0-1.1
				c0-0.3,0-0.7,0-1.1L304.8,618.4L304.8,618.4z"/>
			<path d="M331.8,617.6l0.4-1.7h9.5l-0.4,1.7H331.8z"/>
			<path d="M362.7,606.2l0.4-1.8c0.2-0.8,0.4-1.6,0.6-2.5s0.5-1.7,1-2.4c0.4-0.7,1-1.3,1.7-1.8s1.7-0.7,2.9-0.7c0.5,0,1,0,1.4,0.1
				s0.8,0.1,1,0.2l-0.3,1.4c-0.6-0.1-1.2-0.2-1.8-0.2c-0.9,0-1.7,0.2-2.2,0.5c-0.6,0.4-1,0.8-1.3,1.4c-0.3,0.6-0.6,1.2-0.8,1.9
				c-0.2,0.7-0.3,1.4-0.5,2.1l-0.4,1.8h4.8l-0.3,1.4H364l-4.5,21h-1.7l4.5-21h-3.9l0.3-1.4H362.7z"/>
			<path d="M384.3,628.7h-1.7l1.1-4.7l-0.1-0.1c-0.5,0.8-1,1.6-1.6,2.3s-1.2,1.2-1.9,1.7s-1.5,0.8-2.3,1c-0.9,0.2-1.9,0.4-3,0.4
				c-0.8,0-1.7-0.1-2.4-0.4c-0.8-0.3-1.5-0.7-2-1.2c-0.6-0.5-1-1.2-1.4-2s-0.5-1.6-0.5-2.6c0-0.3,0-0.6,0.1-1c0-0.4,0.1-0.8,0.2-1.3
				c0.1-0.4,0.1-0.9,0.2-1.2c0.1-0.4,0.1-0.7,0.2-1l2.8-12.3h1.7l-2.8,12.3c-0.1,0.2-0.1,0.5-0.2,0.9s-0.1,0.8-0.2,1.2
				s-0.1,0.9-0.2,1.3s-0.1,0.8-0.1,1.1c0,1.4,0.5,2.6,1.4,3.5s2.2,1.3,3.9,1.3c1.3,0,2.6-0.3,3.7-1s2.1-1.5,2.9-2.6s1.5-2.2,2.1-3.5
				c0.5-1.3,0.9-2.6,1.2-3.8l2.2-10.6h1.7L384.3,628.7z"/>
			<path d="M394.9,606.2h1.7l-1.1,4.9h0.1c1-1.7,2.2-3,3.8-4c1.5-1,3.3-1.5,5.3-1.5c0.8,0,1.7,0.1,2.4,0.4c0.8,0.3,1.5,0.7,2,1.2
				c0.6,0.5,1,1.2,1.4,2c0.3,0.8,0.5,1.6,0.5,2.6c0,0.3,0,0.6-0.1,1c0,0.4-0.1,0.8-0.2,1.3c-0.1,0.4-0.1,0.9-0.2,1.2
				c-0.1,0.4-0.1,0.7-0.2,1l-2.8,12.3H406l2.8-12.3c0-0.2,0.1-0.5,0.2-0.9s0.1-0.8,0.2-1.2s0.1-0.9,0.2-1.3s0.1-0.8,0.1-1.1
				c0-1.4-0.5-2.6-1.4-3.5s-2.2-1.3-3.9-1.3c-1.4,0-2.7,0.3-3.8,1c-1.1,0.7-2.1,1.5-2.9,2.6s-1.5,2.2-2.1,3.5s-1,2.6-1.2,3.8
				l-2.2,10.6h-1.7L394.9,606.2z"/>
			<path d="M438,597.5l-6.7,31.2h-1.7l1.2-5l-0.1-0.1c-0.8,1.8-2,3.1-3.4,4.1s-3.1,1.5-5.1,1.5c-1.4,0-2.6-0.2-3.7-0.7
				s-2-1.1-2.7-1.9c-0.7-0.8-1.2-1.8-1.6-2.8c-0.3-1.1-0.5-2.2-0.5-3.4c0-1.7,0.3-3.4,0.8-5.2s1.3-3.3,2.3-4.7s2.3-2.6,3.9-3.5
				c1.5-0.9,3.3-1.3,5.4-1.3c1.9,0,3.6,0.5,4.9,1.6s2.1,2.5,2.3,4.4h0.1l3-14.2L438,597.5L438,597.5z M422.6,627.8
				c1.6,0,3-0.5,4.3-1.4c1.2-0.9,2.3-2.1,3.1-3.5c0.8-1.4,1.4-2.9,1.9-4.6c0.4-1.6,0.6-3.2,0.6-4.6c0-0.8-0.1-1.6-0.4-2.4
				c-0.3-0.8-0.7-1.5-1.2-2.1s-1.2-1.1-1.9-1.5c-0.8-0.4-1.6-0.6-2.6-0.6c-1.8,0-3.3,0.4-4.7,1.2c-1.3,0.8-2.5,1.9-3.4,3.1
				c-0.9,1.3-1.6,2.6-2.1,4.2c-0.5,1.5-0.7,3-0.7,4.4c0,1,0.1,2,0.3,2.9c0.2,0.9,0.6,1.8,1.1,2.5s1.3,1.3,2.2,1.7
				S421.1,627.8,422.6,627.8z"/>
			<path d="M440,612.7c0.6-2.5,1.7-4.3,3.4-5.4c1.7-1.1,3.8-1.6,6.3-1.6c0.6,0,1.2,0.1,2,0.2c0.8,0.1,1.6,0.4,2.3,0.8
				c0.7,0.4,1.3,0.9,1.9,1.6c0.5,0.7,0.8,1.6,0.8,2.7c0,0.5-0.1,1.1-0.2,1.9c-0.1,0.8-0.3,1.6-0.5,2.4c-0.2,0.8-0.3,1.5-0.5,2.1
				s-0.3,1.1-0.3,1.2c-0.1,0.6-0.3,1.2-0.5,1.9s-0.3,1.4-0.5,2.1c-0.1,0.7-0.3,1.3-0.4,1.9c-0.1,0.6-0.2,1-0.2,1.3
				c0,0.4,0.1,0.8,0.3,1c0.2,0.3,0.5,0.4,0.9,0.4c0.2,0,0.5,0,0.7-0.1c0.3-0.1,0.5-0.1,0.7-0.2l-0.3,1.5c-0.3,0.1-0.6,0.1-1,0.2
				c-0.3,0-0.6,0-0.9,0c-0.8,0-1.3-0.3-1.7-0.8c-0.4-0.5-0.5-1-0.5-1.5c0-0.2,0-0.5,0.1-0.9s0.2-0.7,0.2-1H452
				c-0.4,0.8-1,1.5-1.7,2.1s-1.4,1.1-2.1,1.4c-0.8,0.4-1.5,0.7-2.4,0.8c-0.8,0.2-1.6,0.3-2.3,0.3c-1,0-1.9-0.1-2.7-0.3
				c-0.8-0.2-1.6-0.6-2.2-1.1s-1.1-1.1-1.5-1.9s-0.5-1.7-0.5-2.8c0-1.4,0.3-2.6,0.8-3.5s1.3-1.6,2.2-2.1s2-0.8,3.2-1
				s2.4-0.3,3.7-0.3c1.6-0.1,2.9-0.2,3.9-0.3s1.9-0.4,2.5-0.7s1.1-0.8,1.4-1.3c0.3-0.6,0.4-1.3,0.4-2.1c0-1.4-0.4-2.5-1.3-3.3
				s-2.3-1.2-4.4-1.2c-2,0-3.7,0.4-4.9,1.3c-1.3,0.9-2.2,2.3-2.7,4.2L440,612.7L440,612.7z M454.1,616L454.1,616
				c-0.4,0.3-0.9,0.6-1.4,0.8c-0.6,0.2-1.2,0.3-1.9,0.5c-0.7,0.1-1.4,0.2-2,0.3c-0.7,0.1-1.3,0.1-1.7,0.1c-1,0-2.1,0.1-3.1,0.2
				c-1,0.1-1.9,0.4-2.7,0.7c-0.8,0.4-1.5,0.9-1.9,1.6s-0.7,1.7-0.7,2.9c0,0.8,0.2,1.6,0.5,2.1c0.3,0.6,0.7,1.1,1.3,1.4
				c0.5,0.4,1.1,0.6,1.8,0.8s1.4,0.2,2.2,0.2c1.3,0,2.5-0.2,3.5-0.7s1.9-1.1,2.6-1.9c0.7-0.8,1.3-1.7,1.8-2.8s0.9-2.2,1.2-3.3
				L454.1,616z"/>
			<path d="M463.9,606.2h1.7l-1,4.7l0.1,0.1c0.4-0.7,0.9-1.4,1.4-2.1c0.5-0.6,1.1-1.2,1.8-1.7s1.4-0.9,2.2-1.1
				c0.8-0.3,1.6-0.4,2.5-0.4c1.8,0,3.1,0.5,4.1,1.5c0.9,1,1.4,2.4,1.4,4.1h0.1c0.7-1.7,1.8-3,3.3-4c1.4-1,3.1-1.6,4.9-1.6
				c0.8,0,1.5,0.1,2.3,0.4c0.7,0.2,1.4,0.6,1.9,1c0.6,0.5,1,1,1.4,1.7c0.3,0.7,0.5,1.4,0.5,2.3c0,0.7-0.1,1.4-0.2,2.1
				c-0.1,0.7-0.3,1.4-0.4,2.2l-2.8,13.3h-1.7l2.8-13.3c0.1-0.4,0.2-1,0.4-1.8c0.2-0.8,0.2-1.5,0.2-2.3s-0.1-1.5-0.4-2
				c-0.3-0.6-0.7-1-1.1-1.3c-0.5-0.3-1-0.6-1.6-0.7c-0.6-0.1-1.2-0.2-1.9-0.2c-0.9,0-1.8,0.3-2.7,0.8c-0.9,0.6-1.7,1.3-2.5,2.1
				c-0.7,0.9-1.4,1.8-1.9,2.8s-0.9,2-1.1,3l-2.8,12.8h-1.7l2.8-12.8c0.1-0.6,0.3-1.3,0.3-2.1c0.1-0.8,0.1-1.5,0.1-2.2
				c0-1.4-0.4-2.5-1.2-3.3c-0.8-0.8-1.9-1.2-3.2-1.2c-1.2,0-2.3,0.3-3.3,1s-1.9,1.5-2.6,2.6c-0.8,1-1.4,2.2-1.9,3.4
				s-0.9,2.4-1.1,3.4l-2.4,11.2H459L463.9,606.2z"/>
			<path d="M496.7,617.7c-0.1,0.4-0.1,0.8-0.2,1.2c0,0.4-0.1,0.8-0.1,1.2c0,1,0.2,2,0.5,2.9s0.8,1.8,1.4,2.5s1.3,1.3,2.2,1.7
				c0.9,0.4,1.9,0.6,3,0.6c1,0,2-0.2,3-0.5c0.9-0.4,1.8-0.8,2.5-1.4c0.7-0.6,1.4-1.3,1.9-2.1s0.9-1.6,1.1-2.5h1.7
				c-0.3,1.2-0.8,2.2-1.4,3.2c-0.6,1-1.4,1.8-2.2,2.5s-1.9,1.3-3,1.7s-2.4,0.6-3.7,0.6c-1.4,0-2.7-0.2-3.8-0.7
				c-1.1-0.5-2-1.1-2.7-1.9c-0.7-0.8-1.3-1.8-1.6-2.8c-0.4-1.1-0.5-2.2-0.5-3.4c0-2.1,0.3-4,0.8-5.8c0.6-1.8,1.3-3.3,2.4-4.6
				s2.3-2.3,3.8-3.1c1.5-0.7,3.2-1.1,5-1.1c1.3,0,2.5,0.2,3.5,0.7s1.9,1,2.6,1.8c0.7,0.8,1.2,1.7,1.6,2.8c0.4,1.1,0.5,2.2,0.5,3.4
				c0,0.6,0,1.1-0.1,1.7c-0.1,0.5-0.1,1.1-0.2,1.6h-18L496.7,617.7L496.7,617.7z M513.1,616.2c0.1-0.4,0.1-0.7,0.2-1
				c0-0.3,0.1-0.6,0.1-0.9c0-1-0.1-1.9-0.4-2.8s-0.7-1.6-1.2-2.3c-0.6-0.7-1.3-1.2-2.1-1.6c-0.9-0.4-1.9-0.6-3.1-0.6
				c-1.3,0-2.5,0.2-3.6,0.7s-2,1.2-2.8,2s-1.4,1.8-2,2.9c-0.5,1.1-0.9,2.2-1.2,3.4h16.1L513.1,616.2L513.1,616.2z"/>
			<path d="M521.4,606.2h1.7l-1.1,4.9h0.1c1-1.7,2.2-3,3.8-4c1.5-1,3.3-1.5,5.3-1.5c0.8,0,1.7,0.1,2.4,0.4c0.8,0.3,1.5,0.7,2,1.2
				c0.6,0.5,1,1.2,1.4,2c0.3,0.8,0.5,1.6,0.5,2.6c0,0.3,0,0.6-0.1,1c0,0.4-0.1,0.8-0.2,1.3c-0.1,0.4-0.1,0.9-0.2,1.2
				c-0.1,0.4-0.1,0.7-0.2,1l-2.8,12.3h-1.7l2.8-12.3c0-0.2,0.1-0.5,0.2-0.9s0.1-0.8,0.2-1.2c0.1-0.4,0.1-0.9,0.2-1.3
				s0.1-0.8,0.1-1.1c0-1.4-0.5-2.6-1.4-3.5s-2.2-1.3-3.9-1.3c-1.4,0-2.7,0.3-3.8,1s-2.1,1.5-2.9,2.6c-0.8,1.1-1.5,2.2-2.1,3.5
				s-1,2.6-1.2,3.8l-2.2,10.6h-1.7L521.4,606.2z"/>
			<path d="M540.8,606.2h4.2l1.5-7h1.7l-1.5,7h4.8l-0.3,1.4h-4.7l-3.4,15.7c0,0.1-0.1,0.2-0.1,0.4s-0.1,0.4-0.1,0.6
				s-0.1,0.4-0.1,0.6c0,0.2,0,0.3,0,0.4c0,0.6,0.2,1.1,0.6,1.4s1,0.5,1.9,0.5c0.8,0,1.6,0,2.5-0.1l-0.3,1.4c-0.3,0-0.7,0-1.2,0.1
				s-1,0.1-1.5,0.1c-1.3,0-2.3-0.3-2.8-0.9c-0.6-0.6-0.9-1.4-0.9-2.5c0-0.3,0-0.6,0.1-1.1c0.1-0.4,0.2-0.8,0.2-1.1l3.4-15.5h-4.2
				L540.8,606.2z"/>
			<path d="M553.5,612.7c0.6-2.5,1.7-4.3,3.4-5.4c1.7-1.1,3.8-1.6,6.3-1.6c0.6,0,1.2,0.1,2,0.2c0.8,0.1,1.6,0.4,2.3,0.8
				c0.7,0.4,1.3,0.9,1.9,1.6c0.5,0.7,0.8,1.6,0.8,2.7c0,0.5-0.1,1.1-0.2,1.9c-0.1,0.8-0.3,1.6-0.5,2.4c-0.2,0.8-0.3,1.5-0.5,2.1
				s-0.3,1.1-0.3,1.2c-0.1,0.6-0.3,1.2-0.5,1.9s-0.3,1.4-0.5,2.1c-0.1,0.7-0.3,1.3-0.4,1.9c-0.1,0.6-0.2,1-0.2,1.3
				c0,0.4,0.1,0.8,0.3,1c0.2,0.3,0.5,0.4,0.9,0.4c0.2,0,0.5,0,0.7-0.1c0.3-0.1,0.5-0.1,0.7-0.2l-0.3,1.5c-0.3,0.1-0.6,0.1-1,0.2
				c-0.3,0-0.6,0-0.9,0c-0.8,0-1.3-0.3-1.7-0.8s-0.5-1-0.5-1.5c0-0.2,0-0.5,0.1-0.9s0.2-0.7,0.2-1h-0.1c-0.4,0.8-1,1.5-1.7,2.1
				s-1.4,1.1-2.1,1.4c-0.8,0.4-1.5,0.7-2.4,0.8c-0.8,0.2-1.6,0.3-2.3,0.3c-1,0-1.9-0.1-2.7-0.3s-1.6-0.6-2.2-1.1s-1.1-1.1-1.5-1.9
				s-0.5-1.7-0.5-2.8c0-1.4,0.3-2.6,0.8-3.5s1.3-1.6,2.2-2.1s2-0.8,3.2-1s2.4-0.3,3.7-0.3c1.6-0.1,2.9-0.2,3.9-0.3s1.9-0.4,2.5-0.7
				s1.1-0.8,1.4-1.3c0.3-0.6,0.4-1.3,0.4-2.1c0-1.4-0.4-2.5-1.3-3.3s-2.3-1.2-4.4-1.2c-2,0-3.7,0.4-4.9,1.3
				c-1.3,0.9-2.2,2.3-2.7,4.2L553.5,612.7L553.5,612.7z M567.6,616L567.6,616c-0.4,0.3-0.9,0.6-1.4,0.8c-0.6,0.2-1.2,0.3-1.9,0.5
				c-0.7,0.1-1.4,0.2-2,0.3c-0.7,0.1-1.3,0.1-1.7,0.1c-1,0-2.1,0.1-3.1,0.2c-1,0.1-1.9,0.4-2.7,0.7c-0.8,0.4-1.5,0.9-1.9,1.6
				s-0.7,1.7-0.7,2.9c0,0.8,0.2,1.6,0.5,2.1c0.3,0.6,0.7,1.1,1.3,1.4c0.5,0.4,1.1,0.6,1.8,0.8s1.4,0.2,2.2,0.2
				c1.3,0,2.5-0.2,3.5-0.7s1.9-1.1,2.6-1.9c0.7-0.8,1.3-1.7,1.8-2.8s0.9-2.2,1.2-3.3L567.6,616z"/>
			<path d="M579,597.5h1.7l-6.5,31.2h-1.7L579,597.5z"/>
			<path class="st14" d="M645.4,630.5l17.9-32.7h1.9l-17.9,32.7H645.4z"/>
			<path d="M682.4,612.7c0.6-2.5,1.7-4.3,3.4-5.4c1.7-1.1,3.8-1.6,6.3-1.6c0.6,0,1.2,0.1,2,0.2c0.8,0.1,1.6,0.4,2.3,0.8
				c0.7,0.4,1.3,0.9,1.9,1.6c0.5,0.7,0.8,1.6,0.8,2.7c0,0.5-0.1,1.1-0.2,1.9c-0.1,0.8-0.3,1.6-0.5,2.4c-0.2,0.8-0.3,1.5-0.5,2.1
				s-0.3,1.1-0.3,1.2c-0.1,0.6-0.3,1.2-0.5,1.9s-0.3,1.4-0.5,2.1c-0.1,0.7-0.3,1.3-0.4,1.9c-0.1,0.6-0.2,1-0.2,1.3
				c0,0.4,0.1,0.8,0.3,1c0.2,0.3,0.5,0.4,0.9,0.4c0.2,0,0.5,0,0.7-0.1c0.3-0.1,0.5-0.1,0.7-0.2l-0.3,1.5c-0.3,0.1-0.6,0.1-1,0.2
				c-0.3,0-0.6,0-0.9,0c-0.8,0-1.3-0.3-1.7-0.8s-0.5-1-0.5-1.5c0-0.2,0-0.5,0.1-0.9s0.2-0.7,0.2-1h-0.1c-0.4,0.8-1,1.5-1.7,2.1
				s-1.4,1.1-2.1,1.4c-0.8,0.4-1.5,0.7-2.4,0.8c-0.8,0.2-1.6,0.3-2.3,0.3c-1,0-1.9-0.1-2.7-0.3s-1.6-0.6-2.2-1.1s-1.1-1.1-1.5-1.9
				s-0.5-1.7-0.5-2.8c0-1.4,0.3-2.6,0.8-3.5s1.3-1.6,2.2-2.1s2-0.8,3.2-1s2.4-0.3,3.7-0.3c1.6-0.1,2.9-0.2,3.9-0.3s1.9-0.4,2.5-0.7
				s1.1-0.8,1.4-1.3c0.3-0.6,0.4-1.3,0.4-2.1c0-1.4-0.4-2.5-1.3-3.3s-2.3-1.2-4.4-1.2c-2,0-3.7,0.4-4.9,1.3
				c-1.3,0.9-2.2,2.3-2.7,4.2L682.4,612.7L682.4,612.7z M696.5,616L696.5,616c-0.4,0.3-0.9,0.6-1.4,0.8c-0.6,0.2-1.2,0.3-1.9,0.5
				c-0.7,0.1-1.4,0.2-2,0.3c-0.7,0.1-1.3,0.1-1.7,0.1c-1,0-2.1,0.1-3.1,0.2c-1,0.1-1.9,0.4-2.7,0.7c-0.8,0.4-1.5,0.9-1.9,1.6
				s-0.7,1.7-0.7,2.9c0,0.8,0.2,1.6,0.5,2.1c0.3,0.6,0.7,1.1,1.3,1.4c0.5,0.4,1.1,0.6,1.8,0.8s1.4,0.2,2.2,0.2
				c1.3,0,2.5-0.2,3.5-0.7s1.9-1.1,2.6-1.9c0.7-0.8,1.3-1.7,1.8-2.8s0.9-2.2,1.2-3.3L696.5,616z"/>
			<path d="M707.9,597.5h1.7l-6.5,31.2h-1.7L707.9,597.5z"/>
			<path d="M710.2,606.2h4.2l1.5-7h1.7l-1.5,7h4.8l-0.3,1.4h-4.7l-3.4,15.7c0,0.1-0.1,0.2-0.1,0.4s-0.1,0.4-0.1,0.6
				s-0.1,0.4-0.1,0.6c0,0.2,0,0.3,0,0.4c0,0.6,0.2,1.1,0.6,1.4s1,0.5,1.9,0.5c0.8,0,1.6,0,2.5-0.1l-0.3,1.4c-0.3,0-0.7,0-1.2,0.1
				s-1,0.1-1.5,0.1c-1.3,0-2.3-0.3-2.8-0.9c-0.6-0.6-0.9-1.4-0.9-2.5c0-0.3,0-0.6,0.1-1.1c0.1-0.4,0.2-0.8,0.2-1.1l3.4-15.5H710
				L710.2,606.2z"/>
			<path d="M722.2,617.7c-0.1,0.4-0.1,0.8-0.2,1.2c0,0.4-0.1,0.8-0.1,1.2c0,1,0.2,2,0.5,2.9s0.8,1.8,1.4,2.5s1.3,1.3,2.2,1.7
				s1.9,0.6,3,0.6c1,0,2-0.2,3-0.5c0.9-0.4,1.8-0.8,2.5-1.4c0.7-0.6,1.4-1.3,1.9-2.1s0.9-1.6,1.1-2.5h1.7c-0.3,1.2-0.8,2.2-1.4,3.2
				c-0.6,1-1.4,1.8-2.2,2.5s-1.9,1.3-3,1.7s-2.4,0.6-3.7,0.6c-1.4,0-2.7-0.2-3.8-0.7s-2-1.1-2.7-1.9c-0.7-0.8-1.3-1.8-1.6-2.8
				c-0.4-1.1-0.5-2.2-0.5-3.4c0-2.1,0.3-4,0.8-5.8c0.6-1.8,1.3-3.3,2.4-4.6s2.3-2.3,3.8-3.1c1.5-0.7,3.2-1.1,5-1.1
				c1.3,0,2.5,0.2,3.5,0.7s1.9,1,2.6,1.8c0.7,0.8,1.2,1.7,1.6,2.8c0.4,1.1,0.5,2.2,0.5,3.4c0,0.6,0,1.1-0.1,1.7
				c-0.1,0.5-0.1,1.1-0.2,1.6h-18V617.7z M738.7,616.2c0.1-0.4,0.1-0.7,0.2-1c0-0.3,0.1-0.6,0.1-0.9c0-1-0.1-1.9-0.4-2.8
				s-0.7-1.6-1.2-2.3c-0.6-0.7-1.3-1.2-2.1-1.6c-0.9-0.4-1.9-0.6-3.1-0.6c-1.3,0-2.5,0.2-3.6,0.7s-2,1.2-2.8,2s-1.4,1.8-2,2.9
				c-0.5,1.1-0.9,2.2-1.2,3.4h16.1V616.2z"/>
			<path d="M746.8,606.2h1.7l-1.2,5.4h0.1c0.8-1.7,1.9-3.1,3.3-4.2c1.4-1.1,3.1-1.7,5.1-1.7c0.2,0,0.5,0,0.7,0s0.5,0,0.7,0.1
				l-0.5,1.8c-0.4-0.1-0.9-0.2-1.4-0.2c-1.6,0-3,0.4-4.1,1.3c-1.1,0.8-2.1,1.9-2.8,3.1c-0.8,1.2-1.4,2.6-1.8,4
				c-0.4,1.4-0.8,2.7-1,3.9l-2,9.1h-1.7L746.8,606.2z"/>
			<path d="M759.1,606.2h1.7l-1.1,4.9h0.1c1-1.7,2.2-3,3.8-4c1.5-1,3.3-1.5,5.3-1.5c0.8,0,1.7,0.1,2.4,0.4c0.8,0.3,1.5,0.7,2,1.2
				c0.6,0.5,1,1.2,1.4,2c0.3,0.8,0.5,1.6,0.5,2.6c0,0.3,0,0.6-0.1,1c0,0.4-0.1,0.8-0.2,1.3c-0.1,0.4-0.1,0.9-0.2,1.2
				c-0.1,0.4-0.1,0.7-0.2,1l-2.8,12.3H770l2.8-12.3c0-0.2,0.1-0.5,0.2-0.9s0.1-0.8,0.2-1.2c0.1-0.4,0.1-0.9,0.2-1.3s0.1-0.8,0.1-1.1
				c0-1.4-0.5-2.6-1.4-3.5s-2.2-1.3-3.9-1.3c-1.4,0-2.7,0.3-3.8,1s-2.1,1.5-2.9,2.6c-0.8,1.1-1.5,2.2-2.1,3.5s-1,2.6-1.2,3.8
				l-2.2,10.6h-1.7L759.1,606.2z"/>
			<path d="M779.9,612.7c0.6-2.5,1.7-4.3,3.4-5.4c1.7-1.1,3.8-1.6,6.3-1.6c0.6,0,1.2,0.1,2,0.2c0.8,0.1,1.6,0.4,2.3,0.8
				c0.7,0.4,1.3,0.9,1.9,1.6c0.5,0.7,0.8,1.6,0.8,2.7c0,0.5-0.1,1.1-0.2,1.9c-0.1,0.8-0.3,1.6-0.5,2.4c-0.2,0.8-0.3,1.5-0.5,2.1
				s-0.3,1.1-0.3,1.2c-0.1,0.6-0.3,1.2-0.5,1.9s-0.3,1.4-0.5,2.1c-0.1,0.7-0.3,1.3-0.4,1.9c-0.1,0.6-0.2,1-0.2,1.3
				c0,0.4,0.1,0.8,0.3,1c0.2,0.3,0.5,0.4,0.9,0.4c0.2,0,0.5,0,0.7-0.1c0.3-0.1,0.5-0.1,0.7-0.2l-0.3,1.5c-0.3,0.1-0.6,0.1-1,0.2
				c-0.3,0-0.6,0-0.9,0c-0.8,0-1.3-0.3-1.7-0.8s-0.5-1-0.5-1.5c0-0.2,0-0.5,0.1-0.9s0.2-0.7,0.2-1h-0.1c-0.4,0.8-1,1.5-1.7,2.1
				s-1.4,1.1-2.1,1.4c-0.8,0.4-1.5,0.7-2.4,0.8c-0.8,0.2-1.6,0.3-2.3,0.3c-1,0-1.9-0.1-2.7-0.3s-1.6-0.6-2.2-1.1s-1.1-1.1-1.5-1.9
				s-0.5-1.7-0.5-2.8c0-1.4,0.3-2.6,0.8-3.5s1.3-1.6,2.2-2.1s2-0.8,3.2-1s2.4-0.3,3.7-0.3c1.6-0.1,2.9-0.2,3.9-0.3s1.9-0.4,2.5-0.7
				s1.1-0.8,1.4-1.3c0.3-0.6,0.4-1.3,0.4-2.1c0-1.4-0.4-2.5-1.3-3.3s-2.3-1.2-4.4-1.2c-2,0-3.7,0.4-4.9,1.3
				c-1.3,0.9-2.2,2.3-2.7,4.2L779.9,612.7L779.9,612.7z M794,616L794,616c-0.4,0.3-0.9,0.6-1.4,0.8c-0.6,0.2-1.2,0.3-1.9,0.5
				c-0.7,0.1-1.4,0.2-2,0.3c-0.7,0.1-1.3,0.1-1.7,0.1c-1,0-2.1,0.1-3.1,0.2c-1,0.1-1.9,0.4-2.7,0.7c-0.8,0.4-1.5,0.9-1.9,1.6
				s-0.7,1.7-0.7,2.9c0,0.8,0.2,1.6,0.5,2.1c0.3,0.6,0.7,1.1,1.3,1.4c0.5,0.4,1.1,0.6,1.8,0.8s1.4,0.2,2.2,0.2
				c1.3,0,2.5-0.2,3.5-0.7s1.9-1.1,2.6-1.9c0.7-0.8,1.3-1.7,1.8-2.8s0.9-2.2,1.2-3.3L794,616z"/>
			<path d="M800.4,606.2h4.2l1.5-7h1.7l-1.5,7h4.8l-0.3,1.4H806l-3.4,15.7c0,0.1-0.1,0.2-0.1,0.4s-0.1,0.4-0.1,0.6s-0.1,0.4-0.1,0.6
				c0,0.2,0,0.3,0,0.4c0,0.6,0.2,1.1,0.6,1.4s1,0.5,1.9,0.5c0.8,0,1.6,0,2.5-0.1l-0.3,1.4c-0.3,0-0.7,0-1.2,0.1s-1,0.1-1.5,0.1
				c-1.3,0-2.3-0.3-2.8-0.9c-0.6-0.6-0.9-1.4-0.9-2.5c0-0.3,0-0.6,0.1-1.1c0.1-0.4,0.2-0.8,0.2-1.1l3.4-15.5H800L800.4,606.2z"/>
			<path d="M812.4,617.7c-0.1,0.4-0.1,0.8-0.2,1.2c0,0.4-0.1,0.8-0.1,1.2c0,1,0.2,2,0.5,2.9s0.8,1.8,1.4,2.5s1.3,1.3,2.2,1.7
				s1.9,0.6,3,0.6c1,0,2-0.2,3-0.5c0.9-0.4,1.8-0.8,2.5-1.4c0.7-0.6,1.4-1.3,1.9-2.1s0.9-1.6,1.1-2.5h1.7c-0.3,1.2-0.8,2.2-1.4,3.2
				c-0.6,1-1.4,1.8-2.2,2.5s-1.9,1.3-3,1.7s-2.4,0.6-3.7,0.6c-1.4,0-2.7-0.2-3.8-0.7s-2-1.1-2.7-1.9c-0.7-0.8-1.3-1.8-1.6-2.8
				c-0.4-1.1-0.5-2.2-0.5-3.4c0-2.1,0.3-4,0.8-5.8c0.6-1.8,1.3-3.3,2.4-4.6s2.3-2.3,3.8-3.1c1.5-0.7,3.2-1.1,5-1.1
				c1.3,0,2.5,0.2,3.5,0.7s1.9,1,2.6,1.8c0.7,0.8,1.2,1.7,1.6,2.8c0.4,1.1,0.5,2.2,0.5,3.4c0,0.6,0,1.1-0.1,1.7
				c-0.1,0.5-0.1,1.1-0.2,1.6h-18V617.7z M828.8,616.2c0.1-0.4,0.1-0.7,0.2-1c0-0.3,0.1-0.6,0.1-0.9c0-1-0.1-1.9-0.4-2.8
				s-0.7-1.6-1.2-2.3c-0.6-0.7-1.3-1.2-2.1-1.6c-0.9-0.4-1.9-0.6-3.1-0.6c-1.3,0-2.5,0.2-3.6,0.7s-2,1.2-2.8,2s-1.4,1.8-2,2.9
				c-0.5,1.1-0.9,2.2-1.2,3.4h16.1V616.2z"/>
		</g>
	</g>
</g>
<g>
	
		<image style="overflow:visible;opacity:0.4;enable-background:new    ;" width="1024" height="1024" xlink:href="3F8A04F183CC4827.png"  transform="matrix(6.931123e-02 0 0 7.183379e-02 323.2126 325.5648)">
	</image>
	<g class="st28">
		<g>
			<path d="M326,391.5c-0.1,0.2-0.3,0.4-0.5,0.5s-0.4,0.1-0.6,0.1c-0.5,0-0.9-0.2-1.1-0.6s-0.4-1-0.4-1.9s0.1-1.5,0.4-1.9
				s0.6-0.6,1.1-0.6c0.2,0,0.4,0,0.6,0.1s0.3,0.2,0.4,0.4l0,0v-2h1.2v6.3h-1.2L326,391.5L326,391.5z M324.8,390.8
				c0.1,0.3,0.3,0.4,0.5,0.4c0.3,0,0.4-0.1,0.5-0.4s0.1-0.7,0.1-1.2s0-0.9-0.1-1.2c-0.1-0.3-0.3-0.4-0.5-0.4c-0.3,0-0.4,0.1-0.5,0.4
				s-0.1,0.7-0.1,1.2C324.7,390.1,324.8,390.5,324.8,390.8z"/>
			<path d="M329.3,385.6v1h-1.2v-1H329.3z M329.3,387.2v4.8h-1.2v-4.8H329.3z"/>
			<path d="M333.7,391.7c0,0.6-0.2,1.1-0.5,1.4s-0.8,0.5-1.5,0.5c-0.5,0-0.9-0.1-1.2-0.3c-0.3-0.2-0.4-0.5-0.4-0.9h1.2
				c0,0.2,0.1,0.3,0.2,0.4c0.1,0,0.1,0.1,0.2,0.1s0.1,0,0.2,0c0.2,0,0.4-0.1,0.5-0.2c0.1-0.2,0.2-0.4,0.2-0.6v-0.6l0,0
				c-0.1,0.2-0.3,0.3-0.5,0.4s-0.4,0.2-0.6,0.2c-0.5,0-0.8-0.2-1.1-0.6c-0.2-0.4-0.4-1-0.4-1.9c0-0.3,0-0.6,0-0.9s0.1-0.5,0.2-0.8
				c0.1-0.2,0.3-0.4,0.5-0.6c0.2-0.1,0.5-0.2,0.8-0.2c0.2,0,0.3,0,0.5,0.1s0.3,0.3,0.5,0.5l0,0v-0.5h1.2L333.7,391.7L333.7,391.7z
				 M331.3,390.2c0,0.1,0,0.3,0.1,0.4c0,0.1,0.1,0.2,0.2,0.3s0.2,0.1,0.3,0.1c0.1,0,0.2,0,0.3-0.1s0.2-0.2,0.2-0.3
				c0.1-0.1,0.1-0.3,0.1-0.4c0-0.2,0-0.4,0-0.6c0-0.6,0-1-0.1-1.2s-0.3-0.4-0.5-0.4c-0.1,0-0.2,0-0.3,0.1c-0.1,0.1-0.1,0.2-0.2,0.3
				c0,0.1-0.1,0.3-0.1,0.5s0,0.5,0,0.8C331.3,389.9,331.3,390.1,331.3,390.2z"/>
			<path d="M335.9,385.6v1h-1.2v-1H335.9z M335.9,387.2v4.8h-1.2v-4.8H335.9z"/>
			<path d="M338.2,385.8v1.4h0.7v0.8h-0.7v2.6c0,0.2,0,0.3,0.1,0.4s0.2,0.1,0.3,0.1h0.1h0.1v0.8c-0.1,0-0.3,0-0.4,0s-0.3,0-0.4,0
				c-0.2,0-0.4,0-0.6,0s-0.3-0.1-0.3-0.2s-0.1-0.2-0.2-0.4c0-0.2,0-0.4,0-0.6V388h-0.6v-0.8h0.6v-1.4L338.2,385.8L338.2,385.8z"/>
			<path d="M339.3,388.5c0-0.3,0-0.5,0.1-0.7s0.2-0.3,0.4-0.5s0.3-0.2,0.5-0.2s0.4-0.1,0.7-0.1c0.4,0,0.7,0,0.9,0.1
				c0.2,0.1,0.4,0.2,0.5,0.3s0.2,0.3,0.3,0.5c0,0.2,0.1,0.4,0.1,0.6v2.5c0,0.2,0,0.4,0,0.5s0.1,0.3,0.1,0.4h-1.2
				c0-0.1-0.1-0.2-0.1-0.2c0-0.1,0-0.2-0.1-0.3l0,0c-0.1,0.2-0.3,0.4-0.5,0.5s-0.4,0.1-0.7,0.1c-0.2,0-0.4,0-0.5-0.1
				s-0.3-0.2-0.4-0.3c-0.1-0.1-0.2-0.3-0.2-0.4c0-0.2-0.1-0.3-0.1-0.5s0-0.4,0.1-0.6c0-0.2,0.1-0.3,0.2-0.4s0.2-0.2,0.4-0.3
				c0.2-0.1,0.3-0.1,0.5-0.2l0.7-0.2c0.2,0,0.3-0.1,0.4-0.2s0.1-0.2,0.1-0.4c0-0.2,0-0.3-0.1-0.4s-0.2-0.2-0.4-0.2
				c-0.2,0-0.3,0.1-0.4,0.2s-0.1,0.3-0.1,0.5v0.1L339.3,388.5L339.3,388.5L339.3,388.5z M341.3,389.7c-0.1,0-0.2,0.1-0.3,0.1
				c-0.2,0.1-0.4,0.1-0.5,0.3c-0.1,0.1-0.2,0.3-0.2,0.5s0,0.3,0.1,0.5s0.2,0.2,0.4,0.2c0.1,0,0.2,0,0.3,0c0.1,0,0.2-0.1,0.2-0.1
				s0.1-0.1,0.2-0.2c0-0.1,0.1-0.2,0.1-0.3v-0.9C341.5,389.6,341.4,389.7,341.3,389.7z"/>
			<path d="M344.9,385.6v6.3h-1.2v-6.3H344.9z"/>
			<path d="M349,387.2v0.5l0,0c0.1-0.2,0.3-0.4,0.5-0.5s0.4-0.1,0.6-0.1c0.5,0,0.9,0.2,1.1,0.6s0.4,1,0.4,1.9s-0.1,1.5-0.4,1.9
				c-0.2,0.4-0.6,0.6-1.1,0.6c-0.2,0-0.4,0-0.6-0.1s-0.3-0.2-0.4-0.4l0,0v2h-1.2v-6.3h1.1V387.2z M349.2,390.8
				c0.1,0.3,0.3,0.4,0.5,0.4c0.3,0,0.4-0.1,0.5-0.4s0.1-0.7,0.1-1.2s0-0.9-0.1-1.2s-0.3-0.4-0.5-0.4c-0.3,0-0.4,0.1-0.5,0.4
				s-0.1,0.7-0.1,1.2C349.1,390.1,349.1,390.5,349.2,390.8z"/>
			<path d="M353.5,385.6v1h-1.2v-1H353.5z M353.5,387.2v4.8h-1.2v-4.8H353.5z"/>
			<path d="M354.4,388.5c0-0.3,0-0.5,0.1-0.7s0.2-0.3,0.4-0.5s0.3-0.2,0.5-0.2s0.4-0.1,0.7-0.1c0.4,0,0.7,0,0.9,0.1
				c0.2,0.1,0.4,0.2,0.5,0.3s0.2,0.3,0.3,0.5c0,0.2,0.1,0.4,0.1,0.6v2.5c0,0.2,0,0.4,0,0.5s0.1,0.3,0.1,0.4h-1.2
				c0-0.1-0.1-0.2-0.1-0.2c0-0.1,0-0.2-0.1-0.3l0,0c-0.1,0.2-0.3,0.4-0.5,0.5s-0.4,0.1-0.7,0.1c-0.2,0-0.4,0-0.5-0.1
				s-0.3-0.2-0.4-0.3c-0.1-0.1-0.2-0.3-0.2-0.4c0-0.2-0.1-0.3-0.1-0.5s0-0.4,0.1-0.6c0-0.2,0.1-0.3,0.2-0.4s0.2-0.2,0.4-0.3
				c0.2-0.1,0.3-0.1,0.5-0.2l0.7-0.2c0.2,0,0.3-0.1,0.4-0.2s0.1-0.2,0.1-0.4c0-0.2,0-0.3-0.1-0.4s-0.2-0.2-0.4-0.2
				c-0.2,0-0.3,0.1-0.4,0.2s-0.1,0.3-0.1,0.5v0.1L354.4,388.5L354.4,388.5L354.4,388.5z M356.4,389.7c-0.1,0-0.2,0.1-0.3,0.1
				c-0.2,0.1-0.4,0.1-0.5,0.3c-0.1,0.1-0.2,0.3-0.2,0.5s0,0.3,0.1,0.5s0.2,0.2,0.4,0.2c0.1,0,0.2,0,0.3,0c0.1,0,0.2-0.1,0.2-0.1
				s0.1-0.1,0.2-0.2c0-0.1,0.1-0.2,0.1-0.3v-0.9C356.5,389.6,356.4,389.7,356.4,389.7z"/>
			<path d="M359.8,387.2v0.6l0,0c0.1-0.2,0.3-0.4,0.5-0.5s0.4-0.2,0.7-0.2c0.4,0,0.7,0.1,0.9,0.3c0.2,0.2,0.3,0.6,0.3,1v3.5H361
				v-3.3c0-0.2,0-0.4-0.1-0.5s-0.2-0.1-0.4-0.1c-0.4,0-0.6,0.3-0.6,0.8v3.2h-1.2v-4.8H359.8z"/>
			<path d="M363,388.5c0.1-0.3,0.2-0.6,0.3-0.8c0.1-0.2,0.3-0.4,0.6-0.5c0.2-0.1,0.5-0.2,0.9-0.2s0.7,0,0.9,0.1
				c0.2,0.1,0.4,0.3,0.6,0.5c0.1,0.2,0.2,0.5,0.3,0.8c0.1,0.3,0.1,0.7,0.1,1.1s0,0.8-0.1,1.1s-0.2,0.6-0.3,0.8
				c-0.1,0.2-0.3,0.4-0.6,0.5c-0.2,0.1-0.5,0.2-0.9,0.2s-0.7,0-0.9-0.1c-0.2-0.1-0.4-0.2-0.6-0.5c-0.1-0.2-0.2-0.5-0.3-0.8
				c-0.1-0.3-0.1-0.7-0.1-1.1S363,388.8,363,388.5z M364.2,390.3c0,0.2,0,0.4,0.1,0.5c0,0.1,0.1,0.3,0.2,0.3
				c0.1,0.1,0.2,0.1,0.4,0.1c0.2,0,0.4-0.1,0.5-0.4s0.1-0.7,0.1-1.3c0-0.6,0-1-0.1-1.3s-0.3-0.4-0.5-0.4c-0.1,0-0.3,0-0.4,0.1
				s-0.2,0.2-0.2,0.3c0,0.1-0.1,0.3-0.1,0.5s0,0.4,0,0.7S364.1,390.1,364.2,390.3z"/>
			<path d="M373,391.7c0,0.6-0.2,1.1-0.5,1.4s-0.8,0.5-1.5,0.5c-0.5,0-0.9-0.1-1.2-0.3c-0.3-0.2-0.4-0.5-0.4-0.9h1.2
				c0,0.2,0.1,0.3,0.2,0.4c0.1,0,0.1,0.1,0.2,0.1s0.1,0,0.2,0c0.2,0,0.4-0.1,0.5-0.2c0.1-0.2,0.2-0.4,0.2-0.6v-0.6l0,0
				c-0.1,0.2-0.3,0.3-0.5,0.4s-0.4,0.2-0.6,0.2c-0.5,0-0.8-0.2-1.1-0.6c-0.2-0.4-0.4-1-0.4-1.9c0-0.3,0-0.6,0-0.9s0.1-0.5,0.2-0.8
				c0.1-0.2,0.3-0.4,0.5-0.6c0.2-0.1,0.5-0.2,0.8-0.2c0.2,0,0.3,0,0.5,0.1s0.3,0.3,0.5,0.5l0,0v-0.5h1.2L373,391.7L373,391.7z
				 M370.6,390.2c0,0.1,0,0.3,0.1,0.4c0,0.1,0.1,0.2,0.2,0.3s0.2,0.1,0.3,0.1c0.1,0,0.2,0,0.3-0.1s0.2-0.2,0.2-0.3
				c0.1-0.1,0.1-0.3,0.1-0.4c0-0.2,0-0.4,0-0.6c0-0.6,0-1-0.1-1.2s-0.3-0.4-0.5-0.4c-0.1,0-0.2,0-0.3,0.1c-0.1,0.1-0.1,0.2-0.2,0.3
				c0,0.1-0.1,0.3-0.1,0.5s0,0.5,0,0.8C370.6,389.9,370.6,390.1,370.6,390.2z"/>
			<path d="M373.9,388.5c0-0.3,0-0.5,0.1-0.7s0.2-0.3,0.4-0.5s0.3-0.2,0.5-0.2s0.4-0.1,0.7-0.1c0.4,0,0.7,0,0.9,0.1
				c0.2,0.1,0.4,0.2,0.5,0.3s0.2,0.3,0.3,0.5c0,0.2,0.1,0.4,0.1,0.6v2.5c0,0.2,0,0.4,0,0.5s0.1,0.3,0.1,0.4h-1.2
				c0-0.1-0.1-0.2-0.1-0.2c0-0.1,0-0.2-0.1-0.3l0,0c-0.1,0.2-0.3,0.4-0.5,0.5s-0.4,0.1-0.7,0.1c-0.2,0-0.4,0-0.5-0.1
				s-0.3-0.2-0.4-0.3c-0.1-0.1-0.2-0.3-0.2-0.4c0-0.2-0.1-0.3-0.1-0.5s0-0.4,0.1-0.6c0-0.2,0.1-0.3,0.2-0.4s0.2-0.2,0.4-0.3
				c0.2-0.1,0.3-0.1,0.5-0.2l0.7-0.2c0.2,0,0.3-0.1,0.4-0.2s0.1-0.2,0.1-0.4c0-0.2,0-0.3-0.1-0.4s-0.2-0.2-0.4-0.2
				c-0.2,0-0.3,0.1-0.4,0.2s-0.1,0.3-0.1,0.5v0.1L373.9,388.5L373.9,388.5L373.9,388.5z M375.8,389.7c-0.1,0-0.2,0.1-0.3,0.1
				c-0.2,0.1-0.4,0.1-0.5,0.3c-0.1,0.1-0.2,0.3-0.2,0.5s0,0.3,0.1,0.5s0.2,0.2,0.4,0.2c0.1,0,0.2,0,0.3,0c0.1,0,0.2-0.1,0.2-0.1
				s0.1-0.1,0.2-0.2c0-0.1,0.1-0.2,0.1-0.3v-0.9C376,389.6,375.9,389.7,375.8,389.7z"/>
			<path d="M379.4,385.6v6.3h-1.2v-6.3H379.4z"/>
			<path d="M381.5,385.6v6.3h-1.2v-6.3H381.5z"/>
			<path d="M383.4,390.2c0,0.1,0,0.3,0,0.4s0.1,0.3,0.1,0.4s0.1,0.2,0.2,0.2s0.2,0.1,0.3,0.1c0.2,0,0.4-0.1,0.5-0.2s0.2-0.4,0.2-0.7
				h1.1c0,0.6-0.2,1-0.4,1.3s-0.7,0.4-1.3,0.4c-0.4,0-0.8-0.1-1-0.2s-0.4-0.3-0.5-0.6s-0.2-0.5-0.2-0.8s0-0.6,0-0.9s0-0.6,0.1-0.9
				c0-0.3,0.1-0.6,0.3-0.8c0.1-0.2,0.3-0.4,0.6-0.5c0.2-0.1,0.6-0.2,1-0.2s0.6,0.1,0.9,0.2s0.4,0.3,0.5,0.5s0.2,0.5,0.3,0.8
				c0,0.3,0.1,0.6,0.1,1v0.3h-2.4v0.2H383.4z M384.6,388.6c0-0.1,0-0.3-0.1-0.4c0-0.1-0.1-0.2-0.2-0.2s-0.2-0.1-0.3-0.1
				s-0.2,0-0.3,0.1c-0.1,0.1-0.1,0.1-0.2,0.2c0,0.1-0.1,0.2-0.1,0.3c0,0.1,0,0.2,0,0.3v0.2h1.2C384.7,388.9,384.7,388.7,384.6,388.6
				z"/>
			<path d="M387.6,387.2v0.6l0,0c0.1-0.2,0.3-0.4,0.5-0.6c0.2-0.1,0.4-0.2,0.6-0.2h0.1h0.1v1.2c-0.1,0-0.1,0-0.2,0s-0.1,0-0.2,0
				s-0.2,0-0.3,0c-0.1,0-0.2,0.1-0.3,0.1c-0.1,0.1-0.2,0.2-0.2,0.3c-0.1,0.1-0.1,0.2-0.1,0.4v2.9h-1.2v-4.8h1.2V387.2z"/>
			<path d="M389.9,392.6c0.2,0,0.4-0.1,0.5-0.2s0.2-0.3,0.2-0.5l-1.3-4.8h1.3l0.7,3.3l0,0l0.6-3.3h1.2l-1.2,4.4
				c-0.1,0.4-0.2,0.7-0.3,1c-0.1,0.2-0.2,0.4-0.3,0.6s-0.3,0.2-0.5,0.3c-0.2,0-0.4,0.1-0.7,0.1h-0.5v-0.9
				C389.7,392.6,389.8,392.6,389.9,392.6z"/>
		</g>
	</g>
	
		<image style="overflow:visible;opacity:0.4;enable-background:new    ;" width="1024" height="1024" xlink:href="3F8A04F183CC4825.png"  transform="matrix(6.931123e-02 0 0 7.183379e-02 537.7363 325.5648)">
	</image>
	<g class="st28">
		<g>
			<path d="M540.6,391.5c-0.1,0.2-0.3,0.4-0.5,0.5s-0.4,0.1-0.6,0.1c-0.5,0-0.9-0.2-1.1-0.6c-0.2-0.4-0.4-1-0.4-1.9s0.1-1.5,0.4-1.9
				c0.2-0.4,0.6-0.6,1.1-0.6c0.2,0,0.4,0,0.6,0.1c0.2,0.1,0.3,0.2,0.4,0.4l0,0v-2h1.2v6.3h-1.2L540.6,391.5L540.6,391.5z
				 M539.4,390.8c0.1,0.3,0.3,0.4,0.5,0.4c0.3,0,0.4-0.1,0.5-0.4s0.1-0.7,0.1-1.2s0-0.9-0.1-1.2c-0.1-0.3-0.3-0.4-0.5-0.4
				c-0.3,0-0.4,0.1-0.5,0.4s-0.1,0.7-0.1,1.2C539.2,390.1,539.3,390.5,539.4,390.8z"/>
			<path d="M543.8,385.6v1h-1.2v-1H543.8z M543.8,387.2v4.8h-1.2v-4.8H543.8z"/>
			<path d="M548.3,391.7c0,0.6-0.2,1.1-0.5,1.4s-0.8,0.5-1.5,0.5c-0.5,0-0.9-0.1-1.2-0.3c-0.3-0.2-0.4-0.5-0.4-0.9h1.2
				c0,0.2,0.1,0.3,0.2,0.4c0.1,0,0.1,0.1,0.2,0.1c0.1,0,0.1,0,0.2,0c0.2,0,0.4-0.1,0.5-0.2c0.1-0.2,0.2-0.4,0.2-0.6v-0.6l0,0
				c-0.1,0.2-0.3,0.3-0.5,0.4s-0.4,0.2-0.6,0.2c-0.5,0-0.8-0.2-1.1-0.6c-0.2-0.4-0.4-1-0.4-1.9c0-0.3,0-0.6,0-0.9s0.1-0.5,0.2-0.8
				c0.1-0.2,0.3-0.4,0.5-0.6c0.2-0.1,0.5-0.2,0.8-0.2c0.2,0,0.3,0,0.5,0.1s0.3,0.3,0.5,0.5l0,0v-0.5h1.2L548.3,391.7L548.3,391.7z
				 M545.8,390.2c0,0.1,0,0.3,0.1,0.4s0.1,0.2,0.2,0.3c0.1,0.1,0.2,0.1,0.3,0.1s0.2,0,0.3-0.1s0.2-0.2,0.2-0.3
				c0.1-0.1,0.1-0.3,0.1-0.4s0-0.4,0-0.6c0-0.6,0-1-0.1-1.2s-0.3-0.4-0.5-0.4c-0.1,0-0.2,0-0.3,0.1s-0.1,0.2-0.2,0.3
				c0,0.1-0.1,0.3-0.1,0.5s0,0.5,0,0.8C545.8,389.9,545.8,390.1,545.8,390.2z"/>
			<path d="M550.4,385.6v1h-1.2v-1H550.4z M550.4,387.2v4.8h-1.2v-4.8H550.4z"/>
			<path d="M552.7,385.8v1.4h0.7v0.8h-0.7v2.6c0,0.2,0,0.3,0.1,0.4s0.2,0.1,0.3,0.1h0.1h0.1v0.8c-0.1,0-0.3,0-0.4,0s-0.3,0-0.4,0
				c-0.2,0-0.4,0-0.6,0c-0.2,0-0.3-0.1-0.3-0.2c-0.1-0.1-0.1-0.2-0.2-0.4s0-0.4,0-0.6V388h-0.6v-0.8h0.6v-1.4L552.7,385.8
				L552.7,385.8z"/>
			<path d="M553.9,388.5c0-0.3,0-0.5,0.1-0.7s0.2-0.3,0.4-0.5s0.3-0.2,0.5-0.2s0.4-0.1,0.7-0.1c0.4,0,0.7,0,0.9,0.1s0.4,0.2,0.5,0.3
				s0.2,0.3,0.3,0.5c0,0.2,0.1,0.4,0.1,0.6v2.5c0,0.2,0,0.4,0,0.5s0.1,0.3,0.1,0.4h-1.2c0-0.1-0.1-0.2-0.1-0.2s0-0.2-0.1-0.3l0,0
				c-0.1,0.2-0.3,0.4-0.5,0.5s-0.4,0.1-0.7,0.1c-0.2,0-0.4,0-0.5-0.1s-0.3-0.2-0.4-0.3s-0.2-0.3-0.2-0.4c0-0.2-0.1-0.3-0.1-0.5
				s0-0.4,0.1-0.6c0-0.2,0.1-0.3,0.2-0.4c0.1-0.1,0.2-0.2,0.4-0.3c0.2-0.1,0.3-0.1,0.5-0.2l0.7-0.2c0.2,0,0.3-0.1,0.4-0.2
				c0.1-0.1,0.1-0.2,0.1-0.4c0-0.2,0-0.3-0.1-0.4s-0.2-0.2-0.4-0.2s-0.3,0.1-0.4,0.2c-0.1,0.1-0.1,0.3-0.1,0.5v0.1H554v-0.1H553.9z
				 M555.8,389.7c-0.1,0-0.2,0.1-0.3,0.1c-0.2,0.1-0.4,0.1-0.5,0.3c-0.1,0.1-0.2,0.3-0.2,0.5s0,0.3,0.1,0.5c0.1,0.1,0.2,0.2,0.4,0.2
				c0.1,0,0.2,0,0.3,0s0.2-0.1,0.2-0.1c0.1-0.1,0.1-0.1,0.2-0.2c0-0.1,0.1-0.2,0.1-0.3v-0.9C556,389.6,555.9,389.7,555.8,389.7z"/>
			<path d="M559.4,385.6v6.3h-1.2v-6.3H559.4z"/>
			<path d="M563.5,387.2v0.5l0,0c0.1-0.2,0.3-0.4,0.5-0.5s0.4-0.1,0.6-0.1c0.5,0,0.9,0.2,1.1,0.6c0.2,0.4,0.4,1,0.4,1.9
				s-0.1,1.5-0.4,1.9c-0.2,0.4-0.6,0.6-1.1,0.6c-0.2,0-0.4,0-0.6-0.1c-0.2-0.1-0.3-0.2-0.4-0.4l0,0v2h-1.2v-6.3h1.1V387.2z
				 M563.7,390.8c0.1,0.3,0.3,0.4,0.5,0.4c0.3,0,0.4-0.1,0.5-0.4s0.1-0.7,0.1-1.2s0-0.9-0.1-1.2c-0.1-0.3-0.3-0.4-0.5-0.4
				c-0.3,0-0.4,0.1-0.5,0.4s-0.1,0.7-0.1,1.2C563.6,390.1,563.6,390.5,563.7,390.8z"/>
			<path d="M568.1,385.6v1h-1.2v-1H568.1z M568.1,387.2v4.8h-1.2v-4.8H568.1z"/>
			<path d="M568.9,388.5c0-0.3,0-0.5,0.1-0.7s0.2-0.3,0.4-0.5s0.3-0.2,0.5-0.2s0.4-0.1,0.7-0.1c0.4,0,0.7,0,0.9,0.1s0.4,0.2,0.5,0.3
				s0.2,0.3,0.3,0.5c0,0.2,0.1,0.4,0.1,0.6v2.5c0,0.2,0,0.4,0,0.5s0.1,0.3,0.1,0.4h-1.2c0-0.1-0.1-0.2-0.1-0.2s0-0.2-0.1-0.3l0,0
				c-0.1,0.2-0.3,0.4-0.5,0.5s-0.4,0.1-0.7,0.1c-0.2,0-0.4,0-0.5-0.1s-0.3-0.2-0.4-0.3s-0.2-0.3-0.2-0.4c0-0.2-0.1-0.3-0.1-0.5
				s0-0.4,0.1-0.6c0-0.2,0.1-0.3,0.2-0.4c0.1-0.1,0.2-0.2,0.4-0.3c0.2-0.1,0.3-0.1,0.5-0.2l0.7-0.2c0.2,0,0.3-0.1,0.4-0.2
				c0.1-0.1,0.1-0.2,0.1-0.4c0-0.2,0-0.3-0.1-0.4s-0.2-0.2-0.4-0.2s-0.3,0.1-0.4,0.2c-0.1,0.1-0.1,0.3-0.1,0.5v0.1H569v-0.1H568.9z
				 M570.9,389.7c-0.1,0-0.2,0.1-0.3,0.1c-0.2,0.1-0.4,0.1-0.5,0.3c-0.1,0.1-0.2,0.3-0.2,0.5s0,0.3,0.1,0.5c0.1,0.1,0.2,0.2,0.4,0.2
				c0.1,0,0.2,0,0.3,0s0.2-0.1,0.2-0.1c0.1-0.1,0.1-0.1,0.2-0.2c0-0.1,0.1-0.2,0.1-0.3v-0.9C571.1,389.6,571,389.7,570.9,389.7z"/>
			<path d="M574.3,387.2v0.6l0,0c0.1-0.2,0.3-0.4,0.5-0.5s0.4-0.2,0.7-0.2c0.4,0,0.7,0.1,0.9,0.3c0.2,0.2,0.3,0.6,0.3,1v3.5h-1.2
				v-3.3c0-0.2,0-0.4-0.1-0.5s-0.2-0.1-0.4-0.1c-0.4,0-0.6,0.3-0.6,0.8v3.2h-1.2v-4.8H574.3z"/>
			<path d="M577.5,388.5c0.1-0.3,0.2-0.6,0.3-0.8c0.1-0.2,0.3-0.4,0.6-0.5c0.2-0.1,0.5-0.2,0.9-0.2s0.7,0,0.9,0.1s0.4,0.3,0.6,0.5
				c0.1,0.2,0.2,0.5,0.3,0.8s0.1,0.7,0.1,1.1s0,0.8-0.1,1.1c-0.1,0.3-0.2,0.6-0.3,0.8c-0.1,0.2-0.3,0.4-0.6,0.5
				c-0.2,0.1-0.5,0.2-0.9,0.2s-0.7,0-0.9-0.1s-0.4-0.2-0.6-0.5c-0.1-0.2-0.2-0.5-0.3-0.8s-0.1-0.7-0.1-1.1S577.5,388.8,577.5,388.5z
				 M578.7,390.3c0,0.2,0,0.4,0.1,0.5s0.1,0.3,0.2,0.3c0.1,0.1,0.2,0.1,0.4,0.1s0.4-0.1,0.5-0.4s0.1-0.7,0.1-1.3c0-0.6,0-1-0.1-1.3
				s-0.3-0.4-0.5-0.4c-0.1,0-0.3,0-0.4,0.1s-0.2,0.2-0.2,0.3c0,0.1-0.1,0.3-0.1,0.5s0,0.4,0,0.7S578.7,390.1,578.7,390.3z"/>
			<path d="M587.5,391.7c0,0.6-0.2,1.1-0.5,1.4s-0.8,0.5-1.5,0.5c-0.5,0-0.9-0.1-1.2-0.3c-0.3-0.2-0.4-0.5-0.4-0.9h1.2
				c0,0.2,0.1,0.3,0.2,0.4c0.1,0,0.1,0.1,0.2,0.1c0.1,0,0.1,0,0.2,0c0.2,0,0.4-0.1,0.5-0.2c0.1-0.2,0.2-0.4,0.2-0.6v-0.6l0,0
				c-0.1,0.2-0.3,0.3-0.5,0.4s-0.4,0.2-0.6,0.2c-0.5,0-0.8-0.2-1.1-0.6c-0.2-0.4-0.4-1-0.4-1.9c0-0.3,0-0.6,0-0.9s0.1-0.5,0.2-0.8
				c0.1-0.2,0.3-0.4,0.5-0.6s0.5-0.2,0.8-0.2c0.2,0,0.3,0,0.5,0.1s0.3,0.3,0.5,0.5l0,0v-0.5h1.2L587.5,391.7L587.5,391.7z
				 M585.1,390.2c0,0.1,0,0.3,0.1,0.4c0,0.1,0.1,0.2,0.2,0.3c0.1,0.1,0.2,0.1,0.3,0.1s0.2,0,0.3-0.1s0.2-0.2,0.2-0.3
				c0-0.1,0.1-0.3,0.1-0.4c0-0.2,0-0.4,0-0.6c0-0.6,0-1-0.1-1.2s-0.3-0.4-0.5-0.4c-0.1,0-0.2,0-0.3,0.1s-0.1,0.2-0.2,0.3
				s-0.1,0.3-0.1,0.5s0,0.5,0,0.8C585.1,389.9,585.1,390.1,585.1,390.2z"/>
			<path d="M588.4,388.5c0-0.3,0-0.5,0.1-0.7s0.2-0.3,0.4-0.5s0.3-0.2,0.5-0.2s0.4-0.1,0.7-0.1c0.4,0,0.7,0,0.9,0.1s0.4,0.2,0.5,0.3
				s0.2,0.3,0.3,0.5s0.1,0.4,0.1,0.6v2.5c0,0.2,0,0.4,0,0.5s0.1,0.3,0.1,0.4h-1.2c0-0.1-0.1-0.2-0.1-0.2c0-0.1,0-0.2-0.1-0.3l0,0
				c-0.1,0.2-0.3,0.4-0.5,0.5s-0.4,0.1-0.7,0.1c-0.2,0-0.4,0-0.5-0.1s-0.3-0.2-0.4-0.3c-0.1-0.1-0.2-0.3-0.2-0.4
				c0-0.2-0.1-0.3-0.1-0.5s0-0.4,0.1-0.6s0.1-0.3,0.2-0.4s0.2-0.2,0.4-0.3c0.2-0.1,0.3-0.1,0.5-0.2l0.7-0.2c0.2,0,0.3-0.1,0.4-0.2
				c0.1-0.1,0.1-0.2,0.1-0.4c0-0.2,0-0.3-0.1-0.4s-0.2-0.2-0.4-0.2s-0.3,0.1-0.4,0.2c-0.1,0.1-0.1,0.3-0.1,0.5v0.1h-1.1v-0.1H588.4z
				 M590.4,389.7c-0.1,0-0.2,0.1-0.3,0.1c-0.2,0.1-0.4,0.1-0.5,0.3s-0.2,0.3-0.2,0.5s0,0.3,0.1,0.5c0.1,0.1,0.2,0.2,0.4,0.2
				c0.1,0,0.2,0,0.3,0s0.2-0.1,0.2-0.1c0.1-0.1,0.1-0.1,0.2-0.2c0-0.1,0.1-0.2,0.1-0.3v-0.9C590.5,389.6,590.4,389.7,590.4,389.7z"
				/>
			<path d="M593.9,385.6v6.3h-1.2v-6.3H593.9z"/>
			<path d="M596,385.6v6.3h-1.2v-6.3H596z"/>
			<path d="M597.9,390.2c0,0.1,0,0.3,0,0.4s0.1,0.3,0.1,0.4s0.1,0.2,0.2,0.2c0.1,0.1,0.2,0.1,0.3,0.1c0.2,0,0.4-0.1,0.5-0.2
				s0.2-0.4,0.2-0.7h1.1c0,0.6-0.2,1-0.4,1.3s-0.7,0.4-1.3,0.4c-0.4,0-0.8-0.1-1-0.2s-0.4-0.3-0.5-0.6s-0.2-0.5-0.2-0.8s0-0.6,0-0.9
				s0-0.6,0.1-0.9c0-0.3,0.1-0.6,0.3-0.8c0.1-0.2,0.3-0.4,0.6-0.5s0.6-0.2,1-0.2s0.6,0.1,0.9,0.2c0.2,0.1,0.4,0.3,0.5,0.5
				s0.2,0.5,0.3,0.8s0.1,0.6,0.1,1v0.3h-2.4v0.2H597.9z M599.2,388.6c0-0.1,0-0.3-0.1-0.4c0-0.1-0.1-0.2-0.2-0.2
				c-0.1,0-0.2-0.1-0.3-0.1s-0.2,0-0.3,0.1s-0.1,0.1-0.2,0.2s-0.1,0.2-0.1,0.3c0,0.1,0,0.2,0,0.3v0.2h1.2
				C599.2,388.9,599.2,388.7,599.2,388.6z"/>
			<path d="M602.2,387.2v0.6l0,0c0.1-0.2,0.3-0.4,0.5-0.6s0.4-0.2,0.6-0.2h0.1h0.1v1.2c-0.1,0-0.1,0-0.2,0c-0.1,0-0.1,0-0.2,0
				c-0.1,0-0.2,0-0.3,0s-0.2,0.1-0.3,0.1c-0.1,0.1-0.2,0.2-0.2,0.3c-0.1,0.1-0.1,0.2-0.1,0.4v2.9H601v-4.8h1.2V387.2z"/>
			<path d="M604.4,392.6c0.2,0,0.4-0.1,0.5-0.2s0.2-0.3,0.2-0.5l-1.3-4.8h1.3l0.7,3.3l0,0l0.6-3.3h1.2l-1.2,4.4
				c-0.1,0.4-0.2,0.7-0.3,1c-0.1,0.2-0.2,0.4-0.3,0.6s-0.3,0.2-0.5,0.3c-0.2,0-0.4,0.1-0.7,0.1h-0.5v-0.9
				C604.2,392.6,604.3,392.6,604.4,392.6z"/>
		</g>
	</g>
	
		<image style="overflow:visible;opacity:0.4;enable-background:new    ;" width="1024" height="1024" xlink:href="3F8A04F183CC482B.png"  transform="matrix(6.931123e-02 0 0 7.183379e-02 828.786 325.5648)">
	</image>
	<g class="st28">
		<g>
			<path d="M831.6,391.5c-0.1,0.2-0.3,0.4-0.5,0.5s-0.4,0.1-0.6,0.1c-0.5,0-0.9-0.2-1.1-0.6c-0.2-0.4-0.4-1-0.4-1.9s0.1-1.5,0.4-1.9
				c0.2-0.4,0.6-0.6,1.1-0.6c0.2,0,0.4,0,0.6,0.1c0.2,0.1,0.3,0.2,0.4,0.4l0,0v-2h1.2v6.3h-1.2L831.6,391.5L831.6,391.5z
				 M830.4,390.8c0.1,0.3,0.3,0.4,0.5,0.4c0.3,0,0.4-0.1,0.5-0.4s0.1-0.7,0.1-1.2s0-0.9-0.1-1.2c-0.1-0.3-0.3-0.4-0.5-0.4
				c-0.3,0-0.4,0.1-0.5,0.4s-0.1,0.7-0.1,1.2C830.3,390.1,830.3,390.5,830.4,390.8z"/>
			<path d="M834.9,385.6v1h-1.2v-1H834.9z M834.9,387.2v4.8h-1.2v-4.8H834.9z"/>
			<path d="M839.3,391.7c0,0.6-0.2,1.1-0.5,1.4s-0.8,0.5-1.5,0.5c-0.5,0-0.9-0.1-1.2-0.3c-0.3-0.2-0.4-0.5-0.4-0.9h1.2
				c0,0.2,0.1,0.3,0.2,0.4c0.1,0,0.1,0.1,0.2,0.1c0.1,0,0.1,0,0.2,0c0.2,0,0.4-0.1,0.5-0.2c0.1-0.2,0.2-0.4,0.2-0.6v-0.6l0,0
				c-0.1,0.2-0.3,0.3-0.5,0.4s-0.4,0.2-0.6,0.2c-0.5,0-0.8-0.2-1.1-0.6c-0.2-0.4-0.4-1-0.4-1.9c0-0.3,0-0.6,0-0.9s0.1-0.5,0.2-0.8
				c0.1-0.2,0.3-0.4,0.5-0.6c0.2-0.1,0.5-0.2,0.8-0.2c0.2,0,0.3,0,0.5,0.1s0.3,0.3,0.5,0.5l0,0v-0.5h1.2L839.3,391.7L839.3,391.7z
				 M836.9,390.2c0,0.1,0,0.3,0.1,0.4s0.1,0.2,0.2,0.3c0.1,0.1,0.2,0.1,0.3,0.1s0.2,0,0.3-0.1s0.2-0.2,0.2-0.3
				c0.1-0.1,0.1-0.3,0.1-0.4s0-0.4,0-0.6c0-0.6,0-1-0.1-1.2s-0.3-0.4-0.5-0.4c-0.1,0-0.2,0-0.3,0.1s-0.1,0.2-0.2,0.3
				c0,0.1-0.1,0.3-0.1,0.5s0,0.5,0,0.8C836.9,389.9,836.9,390.1,836.9,390.2z"/>
			<path d="M841.4,385.6v1h-1.2v-1H841.4z M841.4,387.2v4.8h-1.2v-4.8H841.4z"/>
			<path d="M843.8,385.8v1.4h0.7v0.8h-0.7v2.6c0,0.2,0,0.3,0.1,0.4s0.2,0.1,0.3,0.1h0.1h0.1v0.8c-0.1,0-0.3,0-0.4,0s-0.3,0-0.4,0
				c-0.2,0-0.4,0-0.6,0c-0.2,0-0.3-0.1-0.3-0.2c-0.1-0.1-0.1-0.2-0.2-0.4s0-0.4,0-0.6V388h-0.6v-0.8h0.6v-1.4L843.8,385.8
				L843.8,385.8z"/>
			<path d="M844.9,388.5c0-0.3,0-0.5,0.1-0.7s0.2-0.3,0.4-0.5s0.3-0.2,0.5-0.2s0.4-0.1,0.7-0.1c0.4,0,0.7,0,0.9,0.1s0.4,0.2,0.5,0.3
				s0.2,0.3,0.3,0.5c0,0.2,0.1,0.4,0.1,0.6v2.5c0,0.2,0,0.4,0,0.5s0.1,0.3,0.1,0.4h-1.2c0-0.1-0.1-0.2-0.1-0.2s0-0.2-0.1-0.3l0,0
				c-0.1,0.2-0.3,0.4-0.5,0.5s-0.4,0.1-0.7,0.1c-0.2,0-0.4,0-0.5-0.1s-0.3-0.2-0.4-0.3s-0.2-0.3-0.2-0.4c0-0.2-0.1-0.3-0.1-0.5
				s0-0.4,0.1-0.6c0-0.2,0.1-0.3,0.2-0.4c0.1-0.1,0.2-0.2,0.4-0.3c0.2-0.1,0.3-0.1,0.5-0.2l0.7-0.2c0.2,0,0.3-0.1,0.4-0.2
				c0.1-0.1,0.1-0.2,0.1-0.4c0-0.2,0-0.3-0.1-0.4s-0.2-0.2-0.4-0.2s-0.3,0.1-0.4,0.2c-0.1,0.1-0.1,0.3-0.1,0.5v0.1H845v-0.1H844.9z
				 M846.9,389.7c-0.1,0-0.2,0.1-0.3,0.1c-0.2,0.1-0.4,0.1-0.5,0.3c-0.1,0.1-0.2,0.3-0.2,0.5s0,0.3,0.1,0.5c0.1,0.1,0.2,0.2,0.4,0.2
				c0.1,0,0.2,0,0.3,0s0.2-0.1,0.2-0.1c0.1-0.1,0.1-0.1,0.2-0.2c0-0.1,0.1-0.2,0.1-0.3v-0.9C847.1,389.6,847,389.7,846.9,389.7z"/>
			<path d="M850.4,385.6v6.3h-1.2v-6.3H850.4z"/>
			<path d="M854.6,387.2v0.5l0,0c0.1-0.2,0.3-0.4,0.5-0.5s0.4-0.1,0.6-0.1c0.5,0,0.9,0.2,1.1,0.6c0.2,0.4,0.4,1,0.4,1.9
				s-0.1,1.5-0.4,1.9c-0.2,0.4-0.6,0.6-1.1,0.6c-0.2,0-0.4,0-0.6-0.1c-0.2-0.1-0.3-0.2-0.4-0.4l0,0v2h-1.2v-6.3h1.1V387.2z
				 M854.8,390.8c0.1,0.3,0.3,0.4,0.5,0.4c0.3,0,0.4-0.1,0.5-0.4s0.1-0.7,0.1-1.2s0-0.9-0.1-1.2c-0.1-0.3-0.3-0.4-0.5-0.4
				c-0.3,0-0.4,0.1-0.5,0.4s-0.1,0.7-0.1,1.2C854.6,390.1,854.7,390.5,854.8,390.8z"/>
			<path d="M859.1,385.6v1h-1.2v-1H859.1z M859.1,387.2v4.8h-1.2v-4.8H859.1z"/>
			<path d="M860,388.5c0-0.3,0-0.5,0.1-0.7s0.2-0.3,0.4-0.5s0.3-0.2,0.5-0.2s0.4-0.1,0.7-0.1c0.4,0,0.7,0,0.9,0.1s0.4,0.2,0.5,0.3
				s0.2,0.3,0.3,0.5c0,0.2,0.1,0.4,0.1,0.6v2.5c0,0.2,0,0.4,0,0.5s0.1,0.3,0.1,0.4h-1.2c0-0.1-0.1-0.2-0.1-0.2s0-0.2-0.1-0.3l0,0
				c-0.1,0.2-0.3,0.4-0.5,0.5s-0.4,0.1-0.7,0.1c-0.2,0-0.4,0-0.5-0.1s-0.3-0.2-0.4-0.3s-0.2-0.3-0.2-0.4c0-0.2-0.1-0.3-0.1-0.5
				s0-0.4,0.1-0.6c0-0.2,0.1-0.3,0.2-0.4c0.1-0.1,0.2-0.2,0.4-0.3c0.2-0.1,0.3-0.1,0.5-0.2l0.7-0.2c0.2,0,0.3-0.1,0.4-0.2
				c0.1-0.1,0.1-0.2,0.1-0.4c0-0.2,0-0.3-0.1-0.4s-0.2-0.2-0.4-0.2s-0.3,0.1-0.4,0.2c-0.1,0.1-0.1,0.3-0.1,0.5v0.1L860,388.5
				L860,388.5z M861.9,389.7c-0.1,0-0.2,0.1-0.3,0.1c-0.2,0.1-0.4,0.1-0.5,0.3c-0.1,0.1-0.2,0.3-0.2,0.5s0,0.3,0.1,0.5
				c0.1,0.1,0.2,0.2,0.4,0.2c0.1,0,0.2,0,0.3,0s0.2-0.1,0.2-0.1c0.1-0.1,0.1-0.1,0.2-0.2c0-0.1,0.1-0.2,0.1-0.3v-0.9
				C862.1,389.6,862,389.7,861.9,389.7z"/>
			<path d="M865.4,387.2v0.6l0,0c0.1-0.2,0.3-0.4,0.5-0.5s0.4-0.2,0.7-0.2c0.4,0,0.7,0.1,0.9,0.3c0.2,0.2,0.3,0.6,0.3,1v3.5h-1.2
				v-3.3c0-0.2,0-0.4-0.1-0.5s-0.2-0.1-0.4-0.1c-0.4,0-0.6,0.3-0.6,0.8v3.2h-1.2v-4.8H865.4z"/>
			<path d="M868.6,388.5c0.1-0.3,0.2-0.6,0.3-0.8c0.1-0.2,0.3-0.4,0.6-0.5c0.2-0.1,0.5-0.2,0.9-0.2s0.7,0,0.9,0.1s0.4,0.3,0.6,0.5
				c0.1,0.2,0.2,0.5,0.3,0.8s0.1,0.7,0.1,1.1s0,0.8-0.1,1.1c-0.1,0.3-0.2,0.6-0.3,0.8c-0.1,0.2-0.3,0.4-0.6,0.5
				c-0.2,0.1-0.5,0.2-0.9,0.2s-0.7,0-0.9-0.1s-0.4-0.2-0.6-0.5c-0.1-0.2-0.2-0.5-0.3-0.8s-0.1-0.7-0.1-1.1S868.5,388.8,868.6,388.5z
				 M869.7,390.3c0,0.2,0,0.4,0.1,0.5s0.1,0.3,0.2,0.3c0.1,0.1,0.2,0.1,0.4,0.1s0.4-0.1,0.5-0.4s0.1-0.7,0.1-1.3c0-0.6,0-1-0.1-1.3
				s-0.3-0.4-0.5-0.4c-0.1,0-0.3,0-0.4,0.1s-0.2,0.2-0.2,0.3c0,0.1-0.1,0.3-0.1,0.5s0,0.4,0,0.7S869.7,390.1,869.7,390.3z"/>
			<path d="M878.6,391.7c0,0.6-0.2,1.1-0.5,1.4s-0.8,0.5-1.5,0.5c-0.5,0-0.9-0.1-1.2-0.3c-0.3-0.2-0.4-0.5-0.4-0.9h1.2
				c0,0.2,0.1,0.3,0.2,0.4c0.1,0,0.1,0.1,0.2,0.1c0.1,0,0.1,0,0.2,0c0.2,0,0.4-0.1,0.5-0.2c0.1-0.2,0.2-0.4,0.2-0.6v-0.6l0,0
				c-0.1,0.2-0.3,0.3-0.5,0.4s-0.4,0.2-0.6,0.2c-0.5,0-0.8-0.2-1.1-0.6c-0.2-0.4-0.4-1-0.4-1.9c0-0.3,0-0.6,0-0.9s0.1-0.5,0.2-0.8
				c0.1-0.2,0.3-0.4,0.5-0.6s0.5-0.2,0.8-0.2c0.2,0,0.3,0,0.5,0.1s0.3,0.3,0.5,0.5l0,0v-0.5h1.2L878.6,391.7L878.6,391.7z
				 M876.2,390.2c0,0.1,0,0.3,0.1,0.4c0,0.1,0.1,0.2,0.2,0.3c0.1,0.1,0.2,0.1,0.3,0.1s0.2,0,0.3-0.1s0.2-0.2,0.2-0.3
				c0-0.1,0.1-0.3,0.1-0.4c0-0.2,0-0.4,0-0.6c0-0.6,0-1-0.1-1.2s-0.3-0.4-0.5-0.4c-0.1,0-0.2,0-0.3,0.1s-0.1,0.2-0.2,0.3
				s-0.1,0.3-0.1,0.5s0,0.5,0,0.8C876.1,389.9,876.2,390.1,876.2,390.2z"/>
			<path d="M879.4,388.5c0-0.3,0-0.5,0.1-0.7s0.2-0.3,0.4-0.5s0.3-0.2,0.5-0.2s0.4-0.1,0.7-0.1c0.4,0,0.7,0,0.9,0.1s0.4,0.2,0.5,0.3
				s0.2,0.3,0.3,0.5s0.1,0.4,0.1,0.6v2.5c0,0.2,0,0.4,0,0.5s0.1,0.3,0.1,0.4h-1.2c0-0.1-0.1-0.2-0.1-0.2c0-0.1,0-0.2-0.1-0.3l0,0
				c-0.1,0.2-0.3,0.4-0.5,0.5s-0.4,0.1-0.7,0.1c-0.2,0-0.4,0-0.5-0.1s-0.3-0.2-0.4-0.3c-0.1-0.1-0.2-0.3-0.2-0.4
				c0-0.2-0.1-0.3-0.1-0.5s0-0.4,0.1-0.6s0.1-0.3,0.2-0.4s0.2-0.2,0.4-0.3c0.2-0.1,0.3-0.1,0.5-0.2l0.7-0.2c0.2,0,0.3-0.1,0.4-0.2
				c0.1-0.1,0.1-0.2,0.1-0.4c0-0.2,0-0.3-0.1-0.4s-0.2-0.2-0.4-0.2s-0.3,0.1-0.4,0.2c-0.1,0.1-0.1,0.3-0.1,0.5v0.1h-1.1v-0.1H879.4z
				 M881.4,389.7c-0.1,0-0.2,0.1-0.3,0.1c-0.2,0.1-0.4,0.1-0.5,0.3s-0.2,0.3-0.2,0.5s0,0.3,0.1,0.5c0.1,0.1,0.2,0.2,0.4,0.2
				c0.1,0,0.2,0,0.3,0s0.2-0.1,0.2-0.1c0.1-0.1,0.1-0.1,0.2-0.2c0-0.1,0.1-0.2,0.1-0.3v-0.9C881.6,389.6,881.5,389.7,881.4,389.7z"
				/>
			<path d="M885,385.6v6.3h-1.2v-6.3H885z"/>
			<path d="M887.1,385.6v6.3h-1.2v-6.3H887.1z"/>
			<path d="M889,390.2c0,0.1,0,0.3,0,0.4s0.1,0.3,0.1,0.4s0.1,0.2,0.2,0.2c0.1,0.1,0.2,0.1,0.3,0.1c0.2,0,0.4-0.1,0.5-0.2
				s0.2-0.4,0.2-0.7h1.1c0,0.6-0.2,1-0.4,1.3s-0.7,0.4-1.3,0.4c-0.4,0-0.8-0.1-1-0.2s-0.4-0.3-0.5-0.6s-0.2-0.5-0.2-0.8s0-0.6,0-0.9
				s0-0.6,0.1-0.9c0-0.3,0.1-0.6,0.3-0.8c0.1-0.2,0.3-0.4,0.6-0.5s0.6-0.2,1-0.2s0.6,0.1,0.9,0.2c0.2,0.1,0.4,0.3,0.5,0.5
				s0.2,0.5,0.3,0.8s0.1,0.6,0.1,1v0.3H889V390.2z M890.2,388.6c0-0.1,0-0.3-0.1-0.4c0-0.1-0.1-0.2-0.2-0.2c-0.1,0-0.2-0.1-0.3-0.1
				s-0.2,0-0.3,0.1s-0.1,0.1-0.2,0.2s-0.1,0.2-0.1,0.3c0,0.1,0,0.2,0,0.3v0.2h1.2C890.2,388.9,890.2,388.7,890.2,388.6z"/>
			<path d="M893.2,387.2v0.6l0,0c0.1-0.2,0.3-0.4,0.5-0.6s0.4-0.2,0.6-0.2h0.1h0.1v1.2c-0.1,0-0.1,0-0.2,0c-0.1,0-0.1,0-0.2,0
				c-0.1,0-0.2,0-0.3,0s-0.2,0.1-0.3,0.1c-0.1,0.1-0.2,0.2-0.2,0.3c-0.1,0.1-0.1,0.2-0.1,0.4v2.9H892v-4.8h1.2V387.2z"/>
			<path d="M895.5,392.6c0.2,0,0.4-0.1,0.5-0.2s0.2-0.3,0.2-0.5l-1.3-4.8h1.3l0.7,3.3l0,0l0.6-3.3h1.2l-1.2,4.4
				c-0.1,0.4-0.2,0.7-0.3,1c-0.1,0.2-0.2,0.4-0.3,0.6s-0.3,0.2-0.5,0.3c-0.2,0-0.4,0.1-0.7,0.1h-0.5v-0.9
				C895.3,392.6,895.4,392.6,895.5,392.6z"/>
		</g>
	</g>
</g>
</svg>
